<?xml version="1.0" encoding="UTF-8"?>
<svg xmlns="http://www.w3.org/2000/svg" xmlns:xlink="http://www.w3.org/1999/xlink" width="343pt" height="257pt" viewBox="0 0 343 257" version="1.1">
<defs>
<clipPath id="clip1">
  <path d="M 77.140625 29.097656 L 78 29.097656 L 78 190.226562 L 77.140625 190.226562 Z M 77.140625 29.097656 "/>
</clipPath>
<clipPath id="clip2">
  <path d="M 103 29.097656 L 105 29.097656 L 105 190.226562 L 103 190.226562 Z M 103 29.097656 "/>
</clipPath>
<clipPath id="clip3">
  <path d="M 129 29.097656 L 132 29.097656 L 132 190.226562 L 129 190.226562 Z M 129 29.097656 "/>
</clipPath>
<clipPath id="clip4">
  <path d="M 156 29.097656 L 158 29.097656 L 158 190.226562 L 156 190.226562 Z M 156 29.097656 "/>
</clipPath>
<clipPath id="clip5">
  <path d="M 183 29.097656 L 185 29.097656 L 185 190.226562 L 183 190.226562 Z M 183 29.097656 "/>
</clipPath>
<clipPath id="clip6">
  <path d="M 209 29.097656 L 212 29.097656 L 212 190.226562 L 209 190.226562 Z M 209 29.097656 "/>
</clipPath>
<clipPath id="clip7">
  <path d="M 236 29.097656 L 238 29.097656 L 238 190.226562 L 236 190.226562 Z M 236 29.097656 "/>
</clipPath>
<clipPath id="clip8">
  <path d="M 263 29.097656 L 265 29.097656 L 265 190.226562 L 263 190.226562 Z M 263 29.097656 "/>
</clipPath>
<clipPath id="clip9">
  <path d="M 289 29.097656 L 291 29.097656 L 291 190.226562 L 289 190.226562 Z M 289 29.097656 "/>
</clipPath>
<clipPath id="clip10">
  <path d="M 316 29.097656 L 317.054688 29.097656 L 317.054688 190.226562 L 316 190.226562 Z M 316 29.097656 "/>
</clipPath>
<clipPath id="clip11">
  <path d="M 77.140625 189 L 317.054688 189 L 317.054688 190.226562 L 77.140625 190.226562 Z M 77.140625 189 "/>
</clipPath>
<clipPath id="clip12">
  <path d="M 77.140625 135 L 317.054688 135 L 317.054688 138 L 77.140625 138 Z M 77.140625 135 "/>
</clipPath>
<clipPath id="clip13">
  <path d="M 77.140625 82 L 317.054688 82 L 317.054688 84 L 77.140625 84 Z M 77.140625 82 "/>
</clipPath>
<clipPath id="clip14">
  <path d="M 77.140625 29.097656 L 317.054688 29.097656 L 317.054688 30 L 77.140625 30 Z M 77.140625 29.097656 "/>
</clipPath>
<clipPath id="clip15">
  <path d="M 77.140625 40 L 317.054688 40 L 317.054688 164 L 77.140625 164 Z M 77.140625 40 "/>
</clipPath>
</defs>
<g id="surface1">
<rect x="0" y="0" width="343" height="257" style="fill:rgb(100%,100%,100%);fill-opacity:1;stroke:none;"/>
<path style=" stroke:none;fill-rule:nonzero;fill:rgb(91.764832%,91.764832%,94.902039%);fill-opacity:1;" d="M 77.140625 190.226562 L 317.054688 190.226562 L 317.054688 29.097656 L 77.140625 29.097656 Z M 77.140625 190.226562 "/>
<g clip-path="url(#clip1)" clip-rule="nonzero">
<path style="fill:none;stroke-width:1;stroke-linecap:round;stroke-linejoin:round;stroke:rgb(100%,100%,100%);stroke-opacity:1;stroke-miterlimit:10;" d="M 64.771149 56.120855 L 64.771149 191.544351 " transform="matrix(1.190972,0,0,-1.189815,0,256.999998)"/>
</g>
<path style="fill:none;stroke-width:1;stroke-linecap:butt;stroke-linejoin:round;stroke:rgb(14.99939%,14.99939%,14.99939%);stroke-opacity:1;stroke-miterlimit:10;" d="M 64.771149 56.120855 L 64.771149 56.120855 " transform="matrix(1.190972,0,0,-1.189815,0,256.999998)"/>
<path style="fill:none;stroke-width:1;stroke-linecap:butt;stroke-linejoin:round;stroke:rgb(14.99939%,14.99939%,14.99939%);stroke-opacity:1;stroke-miterlimit:10;" d="M 64.771149 191.544351 L 64.771149 191.544351 " transform="matrix(1.190972,0,0,-1.189815,0,256.999998)"/>
<path style=" stroke:none;fill-rule:nonzero;fill:rgb(14.99939%,14.99939%,14.99939%);fill-opacity:1;" d="M 81.164062 210.472656 L 79.695312 210.472656 L 79.695312 201.144531 C 79.328125 201.476562 78.863281 201.828125 78.296875 202.160156 C 77.726562 202.492188 77.210938 202.742188 76.761719 202.910156 L 76.761719 201.496094 C 77.578125 201.113281 78.296875 200.644531 78.914062 200.09375 C 79.511719 199.5625 79.945312 199.03125 80.210938 198.496094 L 81.164062 198.496094 L 81.164062 210.472656 "/>
<g clip-path="url(#clip2)" clip-rule="nonzero">
<path style="fill:none;stroke-width:1;stroke-linecap:round;stroke-linejoin:round;stroke:rgb(100%,100%,100%);stroke-opacity:1;stroke-miterlimit:10;" d="M 87.153077 56.120855 L 87.153077 191.544351 " transform="matrix(1.190972,0,0,-1.189815,0,256.999998)"/>
</g>
<path style="fill:none;stroke-width:1;stroke-linecap:butt;stroke-linejoin:round;stroke:rgb(14.99939%,14.99939%,14.99939%);stroke-opacity:1;stroke-miterlimit:10;" d="M 87.153077 56.120855 L 87.153077 56.120855 " transform="matrix(1.190972,0,0,-1.189815,0,256.999998)"/>
<path style="fill:none;stroke-width:1;stroke-linecap:butt;stroke-linejoin:round;stroke:rgb(14.99939%,14.99939%,14.99939%);stroke-opacity:1;stroke-miterlimit:10;" d="M 87.153077 191.544351 L 87.153077 191.544351 " transform="matrix(1.190972,0,0,-1.189815,0,256.999998)"/>
<path style=" stroke:none;fill-rule:nonzero;fill:rgb(14.99939%,14.99939%,14.99939%);fill-opacity:1;" d="M 108.230469 209.074219 L 108.230469 210.472656 L 100.34375 210.472656 C 100.328125 210.125 100.394531 209.789062 100.527344 209.457031 C 100.726562 208.925781 101.042969 208.40625 101.476562 207.875 C 101.910156 207.359375 102.558594 206.757812 103.394531 206.058594 C 104.695312 205.007812 105.5625 204.175781 106.027344 203.542969 C 106.480469 202.925781 106.710938 202.34375 106.710938 201.777344 C 106.710938 201.210938 106.496094 200.710938 106.078125 200.3125 C 105.660156 199.914062 105.128906 199.710938 104.460938 199.710938 C 103.761719 199.710938 103.195312 199.929688 102.777344 200.34375 C 102.34375 200.777344 102.128906 201.363281 102.128906 202.109375 L 100.625 201.945312 C 100.726562 200.828125 101.109375 199.980469 101.777344 199.378906 C 102.445312 198.796875 103.359375 198.496094 104.496094 198.496094 C 105.628906 198.496094 106.546875 198.828125 107.210938 199.460938 C 107.878906 200.09375 108.210938 200.878906 108.210938 201.8125 C 108.210938 202.292969 108.113281 202.761719 107.914062 203.226562 C 107.710938 203.695312 107.394531 204.175781 106.945312 204.675781 C 106.496094 205.191406 105.746094 205.890625 104.695312 206.773438 C 103.8125 207.507812 103.242188 208.007812 102.992188 208.273438 C 102.742188 208.539062 102.542969 208.808594 102.378906 209.074219 L 108.230469 209.074219 "/>
<g clip-path="url(#clip3)" clip-rule="nonzero">
<path style="fill:none;stroke-width:1;stroke-linecap:round;stroke-linejoin:round;stroke:rgb(100%,100%,100%);stroke-opacity:1;stroke-miterlimit:10;" d="M 109.535006 56.120855 L 109.535006 191.544351 " transform="matrix(1.190972,0,0,-1.189815,0,256.999998)"/>
</g>
<path style="fill:none;stroke-width:1;stroke-linecap:butt;stroke-linejoin:round;stroke:rgb(14.99939%,14.99939%,14.99939%);stroke-opacity:1;stroke-miterlimit:10;" d="M 109.535006 56.120855 L 109.535006 56.120855 " transform="matrix(1.190972,0,0,-1.189815,0,256.999998)"/>
<path style="fill:none;stroke-width:1;stroke-linecap:butt;stroke-linejoin:round;stroke:rgb(14.99939%,14.99939%,14.99939%);stroke-opacity:1;stroke-miterlimit:10;" d="M 109.535006 191.544351 L 109.535006 191.544351 " transform="matrix(1.190972,0,0,-1.189815,0,256.999998)"/>
<path style=" stroke:none;fill-rule:nonzero;fill:rgb(14.99939%,14.99939%,14.99939%);fill-opacity:1;" d="M 127.246094 207.324219 L 128.714844 207.125 C 128.878906 207.957031 129.164062 208.558594 129.5625 208.925781 C 129.964844 209.289062 130.464844 209.472656 131.046875 209.472656 C 131.730469 209.472656 132.316406 209.242188 132.78125 208.757812 C 133.25 208.289062 133.5 207.691406 133.5 206.992188 C 133.5 206.324219 133.265625 205.757812 132.832031 205.324219 C 132.398438 204.894531 131.832031 204.660156 131.164062 204.660156 C 130.882812 204.660156 130.53125 204.726562 130.132812 204.828125 L 130.296875 203.542969 C 130.398438 203.558594 130.464844 203.558594 130.53125 203.558594 C 131.148438 203.558594 131.714844 203.410156 132.214844 203.078125 C 132.714844 202.742188 132.964844 202.246094 132.964844 201.5625 C 132.964844 201.027344 132.78125 200.59375 132.414062 200.246094 C 132.046875 199.894531 131.582031 199.710938 131.015625 199.710938 C 130.449219 199.710938 129.964844 199.894531 129.582031 200.246094 C 129.199219 200.613281 128.964844 201.144531 128.863281 201.84375 L 127.398438 201.59375 C 127.5625 200.613281 127.980469 199.84375 128.613281 199.3125 C 129.246094 198.78125 130.03125 198.496094 130.980469 198.496094 C 131.632812 198.496094 132.230469 198.644531 132.78125 198.929688 C 133.316406 199.210938 133.734375 199.597656 134.03125 200.0625 C 134.332031 200.546875 134.484375 201.0625 134.484375 201.59375 C 134.484375 202.128906 134.332031 202.59375 134.066406 203.011719 C 133.78125 203.445312 133.367188 203.777344 132.832031 204.011719 C 133.53125 204.175781 134.066406 204.527344 134.464844 205.027344 C 134.867188 205.542969 135.066406 206.191406 135.066406 206.957031 C 135.066406 207.992188 134.683594 208.875 133.917969 209.589844 C 133.148438 210.324219 132.199219 210.671875 131.046875 210.671875 C 129.980469 210.671875 129.113281 210.375 128.429688 209.738281 C 127.730469 209.125 127.347656 208.324219 127.246094 207.324219 "/>
<g clip-path="url(#clip4)" clip-rule="nonzero">
<path style="fill:none;stroke-width:1;stroke-linecap:round;stroke-linejoin:round;stroke:rgb(100%,100%,100%);stroke-opacity:1;stroke-miterlimit:10;" d="M 131.920214 56.120855 L 131.920214 191.544351 " transform="matrix(1.190972,0,0,-1.189815,0,256.999998)"/>
</g>
<path style="fill:none;stroke-width:1;stroke-linecap:butt;stroke-linejoin:round;stroke:rgb(14.99939%,14.99939%,14.99939%);stroke-opacity:1;stroke-miterlimit:10;" d="M 131.920214 56.120855 L 131.920214 56.120855 " transform="matrix(1.190972,0,0,-1.189815,0,256.999998)"/>
<path style="fill:none;stroke-width:1;stroke-linecap:butt;stroke-linejoin:round;stroke:rgb(14.99939%,14.99939%,14.99939%);stroke-opacity:1;stroke-miterlimit:10;" d="M 131.920214 191.544351 L 131.920214 191.544351 " transform="matrix(1.190972,0,0,-1.189815,0,256.999998)"/>
<path style=" stroke:none;fill-rule:nonzero;fill:rgb(14.99939%,14.99939%,14.99939%);fill-opacity:1;" d="M 158.367188 210.472656 L 158.367188 207.625 L 153.199219 207.625 L 153.199219 206.273438 L 158.632812 198.546875 L 159.832031 198.546875 L 159.832031 206.273438 L 161.449219 206.273438 L 161.449219 207.625 L 159.832031 207.625 L 159.832031 210.472656 L 158.367188 210.472656 M 158.367188 206.273438 L 158.367188 200.894531 L 154.632812 206.273438 L 158.367188 206.273438 "/>
<g clip-path="url(#clip5)" clip-rule="nonzero">
<path style="fill:none;stroke-width:1;stroke-linecap:round;stroke-linejoin:round;stroke:rgb(100%,100%,100%);stroke-opacity:1;stroke-miterlimit:10;" d="M 154.302142 56.120855 L 154.302142 191.544351 " transform="matrix(1.190972,0,0,-1.189815,0,256.999998)"/>
</g>
<path style="fill:none;stroke-width:1;stroke-linecap:butt;stroke-linejoin:round;stroke:rgb(14.99939%,14.99939%,14.99939%);stroke-opacity:1;stroke-miterlimit:10;" d="M 154.302142 56.120855 L 154.302142 56.120855 " transform="matrix(1.190972,0,0,-1.189815,0,256.999998)"/>
<path style="fill:none;stroke-width:1;stroke-linecap:butt;stroke-linejoin:round;stroke:rgb(14.99939%,14.99939%,14.99939%);stroke-opacity:1;stroke-miterlimit:10;" d="M 154.302142 191.544351 L 154.302142 191.544351 " transform="matrix(1.190972,0,0,-1.189815,0,256.999998)"/>
<path style=" stroke:none;fill-rule:nonzero;fill:rgb(14.99939%,14.99939%,14.99939%);fill-opacity:1;" d="M 180.503906 207.339844 L 182.039062 207.226562 C 182.140625 207.972656 182.40625 208.539062 182.824219 208.90625 C 183.238281 209.289062 183.742188 209.472656 184.324219 209.472656 C 185.023438 209.472656 185.625 209.207031 186.125 208.675781 C 186.609375 208.140625 186.859375 207.441406 186.859375 206.558594 C 186.859375 205.726562 186.609375 205.074219 186.140625 204.59375 C 185.675781 204.109375 185.058594 203.859375 184.308594 203.859375 C 183.839844 203.859375 183.40625 203.976562 183.023438 204.191406 C 182.640625 204.410156 182.339844 204.675781 182.140625 205.007812 L 180.753906 204.84375 L 181.90625 198.714844 L 187.84375 198.714844 L 187.84375 200.113281 L 183.089844 200.113281 L 182.441406 203.308594 C 183.15625 202.8125 183.90625 202.5625 184.691406 202.5625 C 185.722656 202.5625 186.609375 202.925781 187.324219 203.644531 C 188.042969 204.375 188.410156 205.292969 188.410156 206.425781 C 188.410156 207.507812 188.09375 208.441406 187.457031 209.222656 C 186.691406 210.191406 185.65625 210.65625 184.324219 210.65625 C 183.238281 210.65625 182.355469 210.355469 181.671875 209.757812 C 180.972656 209.15625 180.589844 208.359375 180.503906 207.339844 "/>
<g clip-path="url(#clip6)" clip-rule="nonzero">
<path style="fill:none;stroke-width:1;stroke-linecap:round;stroke-linejoin:round;stroke:rgb(100%,100%,100%);stroke-opacity:1;stroke-miterlimit:10;" d="M 176.684071 56.120855 L 176.684071 191.544351 " transform="matrix(1.190972,0,0,-1.189815,0,256.999998)"/>
</g>
<path style="fill:none;stroke-width:1;stroke-linecap:butt;stroke-linejoin:round;stroke:rgb(14.99939%,14.99939%,14.99939%);stroke-opacity:1;stroke-miterlimit:10;" d="M 176.684071 56.120855 L 176.684071 56.120855 " transform="matrix(1.190972,0,0,-1.189815,0,256.999998)"/>
<path style="fill:none;stroke-width:1;stroke-linecap:butt;stroke-linejoin:round;stroke:rgb(14.99939%,14.99939%,14.99939%);stroke-opacity:1;stroke-miterlimit:10;" d="M 176.684071 191.544351 L 176.684071 191.544351 " transform="matrix(1.190972,0,0,-1.189815,0,256.999998)"/>
<path style=" stroke:none;fill-rule:nonzero;fill:rgb(14.99939%,14.99939%,14.99939%);fill-opacity:1;" d="M 214.792969 201.460938 L 213.328125 201.578125 C 213.195312 201.011719 213.011719 200.59375 212.777344 200.328125 C 212.375 199.929688 211.875 199.710938 211.308594 199.710938 C 210.84375 199.710938 210.425781 199.84375 210.074219 200.09375 C 209.609375 200.429688 209.257812 200.929688 208.992188 201.5625 C 208.726562 202.210938 208.574219 203.128906 208.574219 204.328125 C 208.925781 203.792969 209.359375 203.410156 209.875 203.144531 C 210.375 202.878906 210.910156 202.742188 211.476562 202.742188 C 212.441406 202.742188 213.277344 203.109375 213.960938 203.828125 C 214.644531 204.542969 214.996094 205.476562 214.996094 206.609375 C 214.996094 207.359375 214.828125 208.058594 214.511719 208.691406 C 214.175781 209.339844 213.742188 209.824219 213.175781 210.15625 C 212.609375 210.488281 211.976562 210.65625 211.257812 210.65625 C 210.027344 210.65625 209.042969 210.222656 208.273438 209.324219 C 207.507812 208.441406 207.125 206.957031 207.125 204.894531 C 207.125 202.59375 207.542969 200.929688 208.390625 199.863281 C 209.125 198.960938 210.125 198.496094 211.394531 198.496094 C 212.328125 198.496094 213.109375 198.761719 213.710938 199.296875 C 214.3125 199.828125 214.660156 200.546875 214.792969 201.460938 M 208.808594 206.609375 C 208.808594 207.109375 208.910156 207.589844 209.125 208.058594 C 209.324219 208.523438 209.625 208.875 210.027344 209.105469 C 210.410156 209.355469 210.808594 209.472656 211.242188 209.472656 C 211.84375 209.472656 212.375 209.222656 212.828125 208.722656 C 213.261719 208.222656 213.492188 207.558594 213.492188 206.691406 C 213.492188 205.875 213.261719 205.226562 212.828125 204.742188 C 212.394531 204.277344 211.84375 204.027344 211.175781 204.027344 C 210.507812 204.027344 209.957031 204.277344 209.492188 204.742188 C 209.023438 205.226562 208.808594 205.84375 208.808594 206.609375 "/>
<g clip-path="url(#clip7)" clip-rule="nonzero">
<path style="fill:none;stroke-width:1;stroke-linecap:round;stroke-linejoin:round;stroke:rgb(100%,100%,100%);stroke-opacity:1;stroke-miterlimit:10;" d="M 199.065999 56.120855 L 199.065999 191.544351 " transform="matrix(1.190972,0,0,-1.189815,0,256.999998)"/>
</g>
<path style="fill:none;stroke-width:1;stroke-linecap:butt;stroke-linejoin:round;stroke:rgb(14.99939%,14.99939%,14.99939%);stroke-opacity:1;stroke-miterlimit:10;" d="M 199.065999 56.120855 L 199.065999 56.120855 " transform="matrix(1.190972,0,0,-1.189815,0,256.999998)"/>
<path style="fill:none;stroke-width:1;stroke-linecap:butt;stroke-linejoin:round;stroke:rgb(14.99939%,14.99939%,14.99939%);stroke-opacity:1;stroke-miterlimit:10;" d="M 199.065999 191.544351 L 199.065999 191.544351 " transform="matrix(1.190972,0,0,-1.189815,0,256.999998)"/>
<path style=" stroke:none;fill-rule:nonzero;fill:rgb(14.99939%,14.99939%,14.99939%);fill-opacity:1;" d="M 234.007812 200.113281 L 234.007812 198.695312 L 241.742188 198.695312 L 241.742188 199.84375 C 240.976562 200.660156 240.207031 201.746094 239.476562 203.078125 C 238.726562 204.410156 238.140625 205.792969 237.742188 207.191406 C 237.441406 208.191406 237.257812 209.289062 237.191406 210.472656 L 235.671875 210.472656 C 235.691406 209.539062 235.875 208.40625 236.222656 207.074219 C 236.574219 205.742188 237.074219 204.460938 237.742188 203.226562 C 238.40625 201.996094 239.109375 200.960938 239.859375 200.113281 L 234.007812 200.113281 "/>
<g clip-path="url(#clip8)" clip-rule="nonzero">
<path style="fill:none;stroke-width:1;stroke-linecap:round;stroke-linejoin:round;stroke:rgb(100%,100%,100%);stroke-opacity:1;stroke-miterlimit:10;" d="M 221.451208 56.120855 L 221.451208 191.544351 " transform="matrix(1.190972,0,0,-1.189815,0,256.999998)"/>
</g>
<path style="fill:none;stroke-width:1;stroke-linecap:butt;stroke-linejoin:round;stroke:rgb(14.99939%,14.99939%,14.99939%);stroke-opacity:1;stroke-miterlimit:10;" d="M 221.451208 56.120855 L 221.451208 56.120855 " transform="matrix(1.190972,0,0,-1.189815,0,256.999998)"/>
<path style="fill:none;stroke-width:1;stroke-linecap:butt;stroke-linejoin:round;stroke:rgb(14.99939%,14.99939%,14.99939%);stroke-opacity:1;stroke-miterlimit:10;" d="M 221.451208 191.544351 L 221.451208 191.544351 " transform="matrix(1.190972,0,0,-1.189815,0,256.999998)"/>
<path style=" stroke:none;fill-rule:nonzero;fill:rgb(14.99939%,14.99939%,14.99939%);fill-opacity:1;" d="M 262.757812 204.011719 C 262.140625 203.792969 261.691406 203.476562 261.390625 203.058594 C 261.089844 202.660156 260.957031 202.160156 260.957031 201.578125 C 260.957031 200.710938 261.257812 199.996094 261.890625 199.394531 C 262.523438 198.796875 263.355469 198.496094 264.390625 198.496094 C 265.425781 198.496094 266.273438 198.8125 266.910156 199.414062 C 267.542969 200.011719 267.859375 200.746094 267.859375 201.609375 C 267.859375 202.175781 267.707031 202.660156 267.425781 203.058594 C 267.125 203.476562 266.691406 203.792969 266.089844 204.011719 C 266.824219 204.242188 267.375 204.625 267.757812 205.160156 C 268.140625 205.691406 268.34375 206.324219 268.34375 207.058594 C 268.34375 208.089844 267.976562 208.941406 267.257812 209.625 C 266.523438 210.324219 265.574219 210.65625 264.40625 210.65625 C 263.222656 210.65625 262.273438 210.324219 261.554688 209.625 C 260.839844 208.941406 260.488281 208.074219 260.488281 207.023438 C 260.488281 206.257812 260.671875 205.609375 261.074219 205.074219 C 261.457031 204.558594 262.023438 204.210938 262.757812 204.011719 M 262.457031 201.527344 C 262.457031 202.09375 262.640625 202.5625 263.007812 202.910156 C 263.375 203.277344 263.839844 203.445312 264.425781 203.445312 C 264.992188 203.445312 265.441406 203.277344 265.808594 202.910156 C 266.175781 202.5625 266.359375 202.128906 266.359375 201.609375 C 266.359375 201.078125 266.15625 200.628906 265.792969 200.261719 C 265.425781 199.894531 264.957031 199.710938 264.40625 199.710938 C 263.839844 199.710938 263.375 199.894531 263.007812 200.246094 C 262.640625 200.613281 262.457031 201.027344 262.457031 201.527344 M 261.988281 207.023438 C 261.988281 207.457031 262.089844 207.859375 262.289062 208.242188 C 262.488281 208.640625 262.773438 208.941406 263.171875 209.15625 C 263.558594 209.375 263.972656 209.472656 264.425781 209.472656 C 265.125 209.472656 265.691406 209.257812 266.15625 208.808594 C 266.609375 208.359375 266.839844 207.773438 266.839844 207.074219 C 266.839844 206.375 266.609375 205.808594 266.140625 205.34375 C 265.675781 204.875 265.074219 204.644531 264.375 204.644531 C 263.671875 204.644531 263.105469 204.875 262.65625 205.324219 C 262.207031 205.792969 261.988281 206.359375 261.988281 207.023438 "/>
<g clip-path="url(#clip9)" clip-rule="nonzero">
<path style="fill:none;stroke-width:1;stroke-linecap:round;stroke-linejoin:round;stroke:rgb(100%,100%,100%);stroke-opacity:1;stroke-miterlimit:10;" d="M 243.833136 56.120855 L 243.833136 191.544351 " transform="matrix(1.190972,0,0,-1.189815,0,256.999998)"/>
</g>
<path style="fill:none;stroke-width:1;stroke-linecap:butt;stroke-linejoin:round;stroke:rgb(14.99939%,14.99939%,14.99939%);stroke-opacity:1;stroke-miterlimit:10;" d="M 243.833136 56.120855 L 243.833136 56.120855 " transform="matrix(1.190972,0,0,-1.189815,0,256.999998)"/>
<path style="fill:none;stroke-width:1;stroke-linecap:butt;stroke-linejoin:round;stroke:rgb(14.99939%,14.99939%,14.99939%);stroke-opacity:1;stroke-miterlimit:10;" d="M 243.833136 191.544351 L 243.833136 191.544351 " transform="matrix(1.190972,0,0,-1.189815,0,256.999998)"/>
<path style=" stroke:none;fill-rule:nonzero;fill:rgb(14.99939%,14.99939%,14.99939%);fill-opacity:1;" d="M 287.390625 207.707031 L 288.789062 207.589844 C 288.90625 208.257812 289.140625 208.722656 289.472656 209.023438 C 289.808594 209.324219 290.238281 209.472656 290.773438 209.472656 C 291.207031 209.472656 291.605469 209.375 291.941406 209.171875 C 292.273438 208.972656 292.558594 208.691406 292.773438 208.339844 C 292.992188 208.007812 293.175781 207.542969 293.324219 206.941406 C 293.476562 206.359375 293.558594 205.757812 293.558594 205.160156 C 293.558594 205.09375 293.542969 204.992188 293.542969 204.859375 C 293.242188 205.324219 292.839844 205.710938 292.339844 205.992188 C 291.839844 206.292969 291.289062 206.425781 290.691406 206.425781 C 289.707031 206.425781 288.871094 206.074219 288.1875 205.359375 C 287.503906 204.644531 287.171875 203.695312 287.171875 202.527344 C 287.171875 201.328125 287.523438 200.34375 288.238281 199.613281 C 288.941406 198.878906 289.839844 198.496094 290.921875 198.496094 C 291.691406 198.496094 292.390625 198.714844 293.042969 199.128906 C 293.675781 199.546875 294.175781 200.144531 294.507812 200.910156 C 294.84375 201.695312 295.007812 202.8125 295.007812 204.261719 C 295.007812 205.792969 294.84375 207.007812 294.507812 207.90625 C 294.175781 208.808594 293.691406 209.492188 293.042969 209.957031 C 292.375 210.421875 291.605469 210.65625 290.742188 210.65625 C 289.808594 210.65625 289.039062 210.40625 288.4375 209.890625 C 287.839844 209.390625 287.488281 208.65625 287.390625 207.707031 M 293.390625 202.460938 C 293.390625 201.628906 293.15625 200.960938 292.707031 200.460938 C 292.257812 199.960938 291.722656 199.710938 291.089844 199.710938 C 290.441406 199.710938 289.875 199.980469 289.390625 200.511719 C 288.90625 201.046875 288.671875 201.746094 288.671875 202.578125 C 288.671875 203.34375 288.890625 203.960938 289.355469 204.425781 C 289.808594 204.910156 290.375 205.144531 291.058594 205.144531 C 291.722656 205.144531 292.289062 204.910156 292.722656 204.425781 C 293.15625 203.960938 293.390625 203.292969 293.390625 202.460938 "/>
<g clip-path="url(#clip10)" clip-rule="nonzero">
<path style="fill:none;stroke-width:1;stroke-linecap:round;stroke-linejoin:round;stroke:rgb(100%,100%,100%);stroke-opacity:1;stroke-miterlimit:10;" d="M 266.215064 56.120855 L 266.215064 191.544351 " transform="matrix(1.190972,0,0,-1.189815,0,256.999998)"/>
</g>
<path style="fill:none;stroke-width:1;stroke-linecap:butt;stroke-linejoin:round;stroke:rgb(14.99939%,14.99939%,14.99939%);stroke-opacity:1;stroke-miterlimit:10;" d="M 266.215064 56.120855 L 266.215064 56.120855 " transform="matrix(1.190972,0,0,-1.189815,0,256.999998)"/>
<path style="fill:none;stroke-width:1;stroke-linecap:butt;stroke-linejoin:round;stroke:rgb(14.99939%,14.99939%,14.99939%);stroke-opacity:1;stroke-miterlimit:10;" d="M 266.215064 191.544351 L 266.215064 191.544351 " transform="matrix(1.190972,0,0,-1.189815,0,256.999998)"/>
<path style=" stroke:none;fill-rule:nonzero;fill:rgb(14.99939%,14.99939%,14.99939%);fill-opacity:1;" d="M 315.308594 210.472656 L 313.84375 210.472656 L 313.84375 201.144531 C 313.476562 201.476562 313.007812 201.828125 312.441406 202.160156 C 311.875 202.492188 311.359375 202.742188 310.910156 202.910156 L 310.910156 201.496094 C 311.726562 201.113281 312.441406 200.644531 313.058594 200.09375 C 313.660156 199.5625 314.09375 199.03125 314.359375 198.496094 L 315.308594 198.496094 L 315.308594 210.472656 "/>
<path style=" stroke:none;fill-rule:nonzero;fill:rgb(14.99939%,14.99939%,14.99939%);fill-opacity:1;" d="M 319.0625 204.59375 C 319.0625 203.195312 319.195312 202.0625 319.496094 201.195312 C 319.777344 200.328125 320.210938 199.664062 320.78125 199.195312 C 321.347656 198.730469 322.078125 198.496094 322.945312 198.496094 C 323.582031 198.496094 324.148438 198.628906 324.632812 198.894531 C 325.097656 199.164062 325.496094 199.527344 325.816406 200.011719 C 326.132812 200.496094 326.382812 201.078125 326.566406 201.777344 C 326.730469 202.476562 326.832031 203.425781 326.832031 204.59375 C 326.832031 205.992188 326.683594 207.125 326.398438 207.992188 C 326.113281 208.855469 325.679688 209.507812 325.113281 209.972656 C 324.546875 210.441406 323.8125 210.65625 322.945312 210.65625 C 321.78125 210.65625 320.878906 210.257812 320.230469 209.441406 C 319.445312 208.457031 319.0625 206.839844 319.0625 204.59375 M 320.5625 204.59375 C 320.5625 206.558594 320.78125 207.859375 321.246094 208.507812 C 321.695312 209.15625 322.261719 209.472656 322.945312 209.472656 C 323.613281 209.472656 324.164062 209.15625 324.632812 208.507812 C 325.097656 207.859375 325.332031 206.558594 325.332031 204.59375 C 325.332031 202.628906 325.097656 201.328125 324.632812 200.679688 C 324.164062 200.046875 323.597656 199.710938 322.929688 199.710938 C 322.246094 199.710938 321.714844 199.996094 321.3125 200.5625 C 320.8125 201.292969 320.5625 202.644531 320.5625 204.59375 "/>
<path style=" stroke:none;fill-rule:nonzero;fill:rgb(14.99939%,14.99939%,14.99939%);fill-opacity:1;" d="M 194.34375 233.359375 L 194.34375 223.476562 L 195.851562 223.476562 L 195.851562 224.886719 C 196.574219 223.820312 197.621094 223.269531 198.996094 223.269531 C 199.585938 223.269531 200.136719 223.382812 200.632812 223.59375 C 201.128906 223.800781 201.511719 224.085938 201.757812 224.429688 C 202.003906 224.773438 202.175781 225.191406 202.273438 225.667969 C 202.328125 225.972656 202.367188 226.523438 202.367188 227.285156 L 202.367188 233.359375 L 200.691406 233.359375 L 200.691406 227.363281 C 200.691406 226.675781 200.613281 226.179688 200.5 225.839844 C 200.367188 225.496094 200.136719 225.230469 199.8125 225.019531 C 199.472656 224.828125 199.089844 224.714844 198.652344 224.714844 C 197.925781 224.714844 197.296875 224.945312 196.785156 225.402344 C 196.269531 225.859375 196.023438 226.714844 196.023438 227.972656 L 196.023438 233.359375 L 194.34375 233.359375 "/>
<g clip-path="url(#clip11)" clip-rule="nonzero">
<path style="fill:none;stroke-width:1;stroke-linecap:round;stroke-linejoin:round;stroke:rgb(100%,100%,100%);stroke-opacity:1;stroke-miterlimit:10;" d="M 64.771149 56.120855 L 266.215064 56.120855 " transform="matrix(1.190972,0,0,-1.189815,0,256.999998)"/>
</g>
<path style="fill:none;stroke-width:1;stroke-linecap:butt;stroke-linejoin:round;stroke:rgb(14.99939%,14.99939%,14.99939%);stroke-opacity:1;stroke-miterlimit:10;" d="M 64.771149 56.120855 L 64.771149 56.120855 " transform="matrix(1.190972,0,0,-1.189815,0,256.999998)"/>
<path style="fill:none;stroke-width:1;stroke-linecap:butt;stroke-linejoin:round;stroke:rgb(14.99939%,14.99939%,14.99939%);stroke-opacity:1;stroke-miterlimit:10;" d="M 266.215064 56.120855 L 266.215064 56.120855 " transform="matrix(1.190972,0,0,-1.189815,0,256.999998)"/>
<path style=" stroke:none;fill-rule:nonzero;fill:rgb(14.99939%,14.99939%,14.99939%);fill-opacity:1;" d="M 46.4375 195.261719 L 44.972656 195.261719 L 44.972656 185.933594 C 44.605469 186.269531 44.136719 186.617188 43.570312 186.949219 C 43.003906 187.285156 42.488281 187.535156 42.035156 187.699219 L 42.035156 186.285156 C 42.855469 185.902344 43.570312 185.433594 44.1875 184.886719 C 44.789062 184.351562 45.222656 183.820312 45.488281 183.285156 L 46.4375 183.285156 L 46.4375 195.261719 "/>
<path style=" stroke:none;fill-rule:nonzero;fill:rgb(14.99939%,14.99939%,14.99939%);fill-opacity:1;" d="M 50.191406 189.382812 C 50.191406 187.984375 50.328125 186.851562 50.625 185.984375 C 50.910156 185.117188 51.34375 184.453125 51.910156 183.984375 C 52.476562 183.519531 53.210938 183.285156 54.078125 183.285156 C 54.710938 183.285156 55.277344 183.417969 55.761719 183.6875 C 56.230469 183.953125 56.628906 184.320312 56.945312 184.800781 C 57.261719 185.285156 57.511719 185.867188 57.695312 186.566406 C 57.863281 187.265625 57.960938 188.214844 57.960938 189.382812 C 57.960938 190.78125 57.8125 191.914062 57.53125 192.78125 C 57.246094 193.648438 56.8125 194.296875 56.246094 194.761719 C 55.679688 195.230469 54.945312 195.445312 54.078125 195.445312 C 52.910156 195.445312 52.011719 195.046875 51.359375 194.230469 C 50.578125 193.246094 50.191406 191.632812 50.191406 189.382812 M 51.695312 189.382812 C 51.695312 191.347656 51.910156 192.648438 52.378906 193.296875 C 52.828125 193.945312 53.394531 194.261719 54.078125 194.261719 C 54.746094 194.261719 55.296875 193.945312 55.761719 193.296875 C 56.230469 192.648438 56.460938 191.347656 56.460938 189.382812 C 56.460938 187.417969 56.230469 186.117188 55.761719 185.46875 C 55.296875 184.835938 54.726562 184.503906 54.0625 184.503906 C 53.378906 184.503906 52.84375 184.785156 52.445312 185.351562 C 51.945312 186.085938 51.695312 187.433594 51.695312 189.382812 "/>
<path style=" stroke:none;fill-rule:nonzero;fill:rgb(14.99939%,14.99939%,14.99939%);fill-opacity:1;" d="M 59.257812 182.855469 C 59.257812 181.875 59.347656 181.082031 59.558594 180.476562 C 59.757812 179.871094 60.0625 179.402344 60.457031 179.078125 C 60.855469 178.75 61.367188 178.585938 61.976562 178.585938 C 62.417969 178.585938 62.816406 178.679688 63.152344 178.867188 C 63.480469 179.054688 63.761719 179.308594 63.984375 179.648438 C 64.203125 179.984375 64.378906 180.394531 64.507812 180.882812 C 64.625 181.375 64.695312 182.039062 64.695312 182.855469 C 64.695312 183.832031 64.589844 184.625 64.390625 185.234375 C 64.191406 185.839844 63.890625 186.292969 63.492188 186.621094 C 63.097656 186.945312 62.582031 187.097656 61.976562 187.097656 C 61.160156 187.097656 60.527344 186.820312 60.074219 186.246094 C 59.523438 185.558594 59.257812 184.429688 59.257812 182.855469 M 60.304688 182.855469 C 60.304688 184.230469 60.457031 185.140625 60.785156 185.59375 C 61.101562 186.050781 61.496094 186.269531 61.976562 186.269531 C 62.441406 186.269531 62.828125 186.050781 63.152344 185.59375 C 63.480469 185.140625 63.644531 184.230469 63.644531 182.855469 C 63.644531 181.480469 63.480469 180.570312 63.152344 180.113281 C 62.828125 179.671875 62.429688 179.4375 61.964844 179.4375 C 61.484375 179.4375 61.113281 179.636719 60.832031 180.03125 C 60.480469 180.546875 60.304688 181.488281 60.304688 182.855469 "/>
<g clip-path="url(#clip12)" clip-rule="nonzero">
<path style="fill:none;stroke-width:1;stroke-linecap:round;stroke-linejoin:round;stroke:rgb(100%,100%,100%);stroke-opacity:1;stroke-miterlimit:10;" d="M 64.771149 101.263115 L 266.215064 101.263115 " transform="matrix(1.190972,0,0,-1.189815,0,256.999998)"/>
</g>
<path style="fill:none;stroke-width:1;stroke-linecap:butt;stroke-linejoin:round;stroke:rgb(14.99939%,14.99939%,14.99939%);stroke-opacity:1;stroke-miterlimit:10;" d="M 64.771149 101.263115 L 64.771149 101.263115 " transform="matrix(1.190972,0,0,-1.189815,0,256.999998)"/>
<path style="fill:none;stroke-width:1;stroke-linecap:butt;stroke-linejoin:round;stroke:rgb(14.99939%,14.99939%,14.99939%);stroke-opacity:1;stroke-miterlimit:10;" d="M 266.215064 101.263115 L 266.215064 101.263115 " transform="matrix(1.190972,0,0,-1.189815,0,256.999998)"/>
<path style=" stroke:none;fill-rule:nonzero;fill:rgb(14.99939%,14.99939%,14.99939%);fill-opacity:1;" d="M 46.4375 141.550781 L 44.972656 141.550781 L 44.972656 132.222656 C 44.605469 132.558594 44.136719 132.90625 43.570312 133.242188 C 43.003906 133.574219 42.488281 133.824219 42.035156 133.988281 L 42.035156 132.574219 C 42.855469 132.191406 43.570312 131.722656 44.1875 131.175781 C 44.789062 130.640625 45.222656 130.109375 45.488281 129.574219 L 46.4375 129.574219 L 46.4375 141.550781 "/>
<path style=" stroke:none;fill-rule:nonzero;fill:rgb(14.99939%,14.99939%,14.99939%);fill-opacity:1;" d="M 50.191406 135.671875 C 50.191406 134.273438 50.328125 133.140625 50.625 132.273438 C 50.910156 131.40625 51.34375 130.742188 51.910156 130.273438 C 52.476562 129.808594 53.210938 129.574219 54.078125 129.574219 C 54.710938 129.574219 55.277344 129.710938 55.761719 129.976562 C 56.230469 130.242188 56.628906 130.609375 56.945312 131.089844 C 57.261719 131.574219 57.511719 132.15625 57.695312 132.855469 C 57.863281 133.558594 57.960938 134.507812 57.960938 135.671875 C 57.960938 137.070312 57.8125 138.203125 57.53125 139.070312 C 57.246094 139.9375 56.8125 140.585938 56.246094 141.050781 C 55.679688 141.519531 54.945312 141.734375 54.078125 141.734375 C 52.910156 141.734375 52.011719 141.335938 51.359375 140.519531 C 50.578125 139.535156 50.191406 137.921875 50.191406 135.671875 M 51.695312 135.671875 C 51.695312 137.636719 51.910156 138.9375 52.378906 139.585938 C 52.828125 140.238281 53.394531 140.554688 54.078125 140.554688 C 54.746094 140.554688 55.296875 140.238281 55.761719 139.585938 C 56.230469 138.9375 56.460938 137.636719 56.460938 135.671875 C 56.460938 133.707031 56.230469 132.40625 55.761719 131.757812 C 55.296875 131.125 54.726562 130.792969 54.0625 130.792969 C 53.378906 130.792969 52.84375 131.074219 52.445312 131.640625 C 51.945312 132.375 51.695312 133.722656 51.695312 135.671875 "/>
<path style=" stroke:none;fill-rule:nonzero;fill:rgb(14.99939%,14.99939%,14.99939%);fill-opacity:1;" d="M 63.121094 133.261719 L 62.09375 133.261719 L 62.09375 126.730469 C 61.835938 126.964844 61.507812 127.207031 61.113281 127.441406 C 60.714844 127.675781 60.351562 127.851562 60.039062 127.964844 L 60.039062 126.976562 C 60.609375 126.707031 61.113281 126.378906 61.542969 125.996094 C 61.964844 125.621094 62.265625 125.25 62.453125 124.875 L 63.121094 124.875 L 63.121094 133.261719 "/>
<g clip-path="url(#clip13)" clip-rule="nonzero">
<path style="fill:none;stroke-width:1;stroke-linecap:round;stroke-linejoin:round;stroke:rgb(100%,100%,100%);stroke-opacity:1;stroke-miterlimit:10;" d="M 64.771149 146.402091 L 266.215064 146.402091 " transform="matrix(1.190972,0,0,-1.189815,0,256.999998)"/>
</g>
<path style="fill:none;stroke-width:1;stroke-linecap:butt;stroke-linejoin:round;stroke:rgb(14.99939%,14.99939%,14.99939%);stroke-opacity:1;stroke-miterlimit:10;" d="M 64.771149 146.402091 L 64.771149 146.402091 " transform="matrix(1.190972,0,0,-1.189815,0,256.999998)"/>
<path style="fill:none;stroke-width:1;stroke-linecap:butt;stroke-linejoin:round;stroke:rgb(14.99939%,14.99939%,14.99939%);stroke-opacity:1;stroke-miterlimit:10;" d="M 266.215064 146.402091 L 266.215064 146.402091 " transform="matrix(1.190972,0,0,-1.189815,0,256.999998)"/>
<path style=" stroke:none;fill-rule:nonzero;fill:rgb(14.99939%,14.99939%,14.99939%);fill-opacity:1;" d="M 46.4375 87.84375 L 44.972656 87.84375 L 44.972656 78.515625 C 44.605469 78.847656 44.136719 79.195312 43.570312 79.53125 C 43.003906 79.863281 42.488281 80.113281 42.035156 80.28125 L 42.035156 78.863281 C 42.855469 78.480469 43.570312 78.015625 44.1875 77.464844 C 44.789062 76.929688 45.222656 76.398438 45.488281 75.867188 L 46.4375 75.867188 L 46.4375 87.84375 "/>
<path style=" stroke:none;fill-rule:nonzero;fill:rgb(14.99939%,14.99939%,14.99939%);fill-opacity:1;" d="M 50.191406 81.960938 C 50.191406 80.5625 50.328125 79.429688 50.625 78.5625 C 50.910156 77.699219 51.34375 77.03125 51.910156 76.566406 C 52.476562 76.097656 53.210938 75.867188 54.078125 75.867188 C 54.710938 75.867188 55.277344 76 55.761719 76.265625 C 56.230469 76.53125 56.628906 76.898438 56.945312 77.382812 C 57.261719 77.863281 57.511719 78.445312 57.695312 79.148438 C 57.863281 79.847656 57.960938 80.796875 57.960938 81.960938 C 57.960938 83.359375 57.8125 84.492188 57.53125 85.359375 C 57.246094 86.226562 56.8125 86.875 56.246094 87.34375 C 55.679688 87.808594 54.945312 88.023438 54.078125 88.023438 C 52.910156 88.023438 52.011719 87.625 51.359375 86.808594 C 50.578125 85.828125 50.191406 84.210938 50.191406 81.960938 M 51.695312 81.960938 C 51.695312 83.925781 51.910156 85.226562 52.378906 85.875 C 52.828125 86.527344 53.394531 86.84375 54.078125 86.84375 C 54.746094 86.84375 55.296875 86.527344 55.761719 85.875 C 56.230469 85.226562 56.460938 83.925781 56.460938 81.960938 C 56.460938 79.996094 56.230469 78.695312 55.761719 78.046875 C 55.296875 77.414062 54.726562 77.082031 54.0625 77.082031 C 53.378906 77.082031 52.84375 77.363281 52.445312 77.929688 C 51.945312 78.664062 51.695312 80.011719 51.695312 81.960938 "/>
<path style=" stroke:none;fill-rule:nonzero;fill:rgb(14.99939%,14.99939%,14.99939%);fill-opacity:1;" d="M 64.636719 78.570312 L 64.636719 79.550781 L 59.117188 79.550781 C 59.105469 79.304688 59.152344 79.070312 59.246094 78.839844 C 59.382812 78.464844 59.605469 78.105469 59.910156 77.730469 C 60.214844 77.371094 60.667969 76.949219 61.25 76.460938 C 62.164062 75.726562 62.769531 75.140625 63.097656 74.699219 C 63.410156 74.269531 63.574219 73.859375 63.574219 73.464844 C 63.574219 73.066406 63.421875 72.71875 63.132812 72.4375 C 62.839844 72.15625 62.464844 72.015625 62 72.015625 C 61.507812 72.015625 61.113281 72.167969 60.820312 72.460938 C 60.515625 72.761719 60.363281 73.171875 60.363281 73.695312 L 59.3125 73.578125 C 59.382812 72.796875 59.652344 72.203125 60.121094 71.785156 C 60.585938 71.375 61.226562 71.167969 62.023438 71.167969 C 62.816406 71.167969 63.457031 71.398438 63.925781 71.84375 C 64.390625 72.285156 64.625 72.832031 64.625 73.488281 C 64.625 73.824219 64.554688 74.152344 64.414062 74.476562 C 64.273438 74.804688 64.054688 75.140625 63.738281 75.492188 C 63.421875 75.851562 62.898438 76.34375 62.164062 76.960938 C 61.542969 77.472656 61.148438 77.824219 60.972656 78.011719 C 60.796875 78.195312 60.65625 78.382812 60.539062 78.570312 L 64.636719 78.570312 "/>
<g clip-path="url(#clip14)" clip-rule="nonzero">
<path style="fill:none;stroke-width:1;stroke-linecap:round;stroke-linejoin:round;stroke:rgb(100%,100%,100%);stroke-opacity:1;stroke-miterlimit:10;" d="M 64.771149 191.544351 L 266.215064 191.544351 " transform="matrix(1.190972,0,0,-1.189815,0,256.999998)"/>
</g>
<path style="fill:none;stroke-width:1;stroke-linecap:butt;stroke-linejoin:round;stroke:rgb(14.99939%,14.99939%,14.99939%);stroke-opacity:1;stroke-miterlimit:10;" d="M 64.771149 191.544351 L 64.771149 191.544351 " transform="matrix(1.190972,0,0,-1.189815,0,256.999998)"/>
<path style="fill:none;stroke-width:1;stroke-linecap:butt;stroke-linejoin:round;stroke:rgb(14.99939%,14.99939%,14.99939%);stroke-opacity:1;stroke-miterlimit:10;" d="M 266.215064 191.544351 L 266.215064 191.544351 " transform="matrix(1.190972,0,0,-1.189815,0,256.999998)"/>
<path style=" stroke:none;fill-rule:nonzero;fill:rgb(14.99939%,14.99939%,14.99939%);fill-opacity:1;" d="M 46.4375 34.132812 L 44.972656 34.132812 L 44.972656 24.804688 C 44.605469 25.136719 44.136719 25.488281 43.570312 25.820312 C 43.003906 26.152344 42.488281 26.402344 42.035156 26.570312 L 42.035156 25.152344 C 42.855469 24.769531 43.570312 24.304688 44.1875 23.753906 C 44.789062 23.222656 45.222656 22.6875 45.488281 22.15625 L 46.4375 22.15625 L 46.4375 34.132812 "/>
<path style=" stroke:none;fill-rule:nonzero;fill:rgb(14.99939%,14.99939%,14.99939%);fill-opacity:1;" d="M 50.191406 28.25 C 50.191406 26.851562 50.328125 25.71875 50.625 24.855469 C 50.910156 23.988281 51.34375 23.320312 51.910156 22.855469 C 52.476562 22.386719 53.210938 22.15625 54.078125 22.15625 C 54.710938 22.15625 55.277344 22.289062 55.761719 22.554688 C 56.230469 22.820312 56.628906 23.1875 56.945312 23.671875 C 57.261719 24.152344 57.511719 24.738281 57.695312 25.4375 C 57.863281 26.136719 57.960938 27.085938 57.960938 28.25 C 57.960938 29.652344 57.8125 30.785156 57.53125 31.648438 C 57.246094 32.515625 56.8125 33.164062 56.246094 33.632812 C 55.679688 34.097656 54.945312 34.316406 54.078125 34.316406 C 52.910156 34.316406 52.011719 33.914062 51.359375 33.097656 C 50.578125 32.117188 50.191406 30.5 50.191406 28.25 M 51.695312 28.25 C 51.695312 30.21875 51.910156 31.515625 52.378906 32.167969 C 52.828125 32.816406 53.394531 33.132812 54.078125 33.132812 C 54.746094 33.132812 55.296875 32.816406 55.761719 32.167969 C 56.230469 31.515625 56.460938 30.21875 56.460938 28.25 C 56.460938 26.285156 56.230469 24.988281 55.761719 24.335938 C 55.296875 23.703125 54.726562 23.371094 54.0625 23.371094 C 53.378906 23.371094 52.84375 23.652344 52.445312 24.21875 C 51.945312 24.953125 51.695312 26.304688 51.695312 28.25 "/>
<path style=" stroke:none;fill-rule:nonzero;fill:rgb(14.99939%,14.99939%,14.99939%);fill-opacity:1;" d="M 59.257812 23.636719 L 60.28125 23.496094 C 60.398438 24.078125 60.597656 24.5 60.878906 24.753906 C 61.160156 25.011719 61.507812 25.140625 61.917969 25.140625 C 62.394531 25.140625 62.804688 24.976562 63.132812 24.636719 C 63.457031 24.3125 63.632812 23.890625 63.632812 23.402344 C 63.632812 22.9375 63.46875 22.539062 63.164062 22.238281 C 62.863281 21.933594 62.464844 21.769531 62 21.769531 C 61.800781 21.769531 61.554688 21.816406 61.273438 21.886719 L 61.390625 20.988281 C 61.460938 21 61.507812 21 61.554688 21 C 61.988281 21 62.382812 20.894531 62.734375 20.664062 C 63.085938 20.429688 63.257812 20.078125 63.257812 19.601562 C 63.257812 19.226562 63.132812 18.925781 62.875 18.679688 C 62.617188 18.433594 62.289062 18.308594 61.894531 18.308594 C 61.496094 18.308594 61.160156 18.433594 60.890625 18.679688 C 60.621094 18.9375 60.457031 19.308594 60.386719 19.800781 L 59.359375 19.625 C 59.476562 18.9375 59.769531 18.398438 60.214844 18.027344 C 60.65625 17.652344 61.207031 17.457031 61.871094 17.457031 C 62.324219 17.457031 62.746094 17.5625 63.132812 17.757812 C 63.503906 17.957031 63.796875 18.226562 64.007812 18.550781 C 64.214844 18.890625 64.320312 19.25 64.320312 19.625 C 64.320312 19.996094 64.214844 20.324219 64.03125 20.617188 C 63.832031 20.917969 63.539062 21.152344 63.164062 21.316406 C 63.65625 21.433594 64.03125 21.675781 64.308594 22.027344 C 64.589844 22.386719 64.730469 22.84375 64.730469 23.378906 C 64.730469 24.101562 64.460938 24.71875 63.925781 25.222656 C 63.386719 25.734375 62.722656 25.980469 61.917969 25.980469 C 61.171875 25.980469 60.5625 25.769531 60.085938 25.328125 C 59.59375 24.894531 59.324219 24.335938 59.257812 23.636719 "/>
<path style="fill:none;stroke-width:0.5;stroke-linecap:butt;stroke-linejoin:round;stroke:rgb(14.99939%,14.99939%,14.99939%);stroke-opacity:1;stroke-miterlimit:10;" d="M 64.771149 69.709496 L 64.771149 69.709496 " transform="matrix(1.190972,0,0,-1.189815,0,256.999998)"/>
<path style="fill:none;stroke-width:0.5;stroke-linecap:butt;stroke-linejoin:round;stroke:rgb(14.99939%,14.99939%,14.99939%);stroke-opacity:1;stroke-miterlimit:10;" d="M 266.215064 69.709496 L 266.215064 69.709496 " transform="matrix(1.190972,0,0,-1.189815,0,256.999998)"/>
<path style="fill:none;stroke-width:0.5;stroke-linecap:butt;stroke-linejoin:round;stroke:rgb(14.99939%,14.99939%,14.99939%);stroke-opacity:1;stroke-miterlimit:10;" d="M 64.771149 77.657817 L 64.771149 77.657817 " transform="matrix(1.190972,0,0,-1.189815,0,256.999998)"/>
<path style="fill:none;stroke-width:0.5;stroke-linecap:butt;stroke-linejoin:round;stroke:rgb(14.99939%,14.99939%,14.99939%);stroke-opacity:1;stroke-miterlimit:10;" d="M 266.215064 77.657817 L 266.215064 77.657817 " transform="matrix(1.190972,0,0,-1.189815,0,256.999998)"/>
<path style="fill:none;stroke-width:0.5;stroke-linecap:butt;stroke-linejoin:round;stroke:rgb(14.99939%,14.99939%,14.99939%);stroke-opacity:1;stroke-miterlimit:10;" d="M 64.771149 83.298137 L 64.771149 83.298137 " transform="matrix(1.190972,0,0,-1.189815,0,256.999998)"/>
<path style="fill:none;stroke-width:0.5;stroke-linecap:butt;stroke-linejoin:round;stroke:rgb(14.99939%,14.99939%,14.99939%);stroke-opacity:1;stroke-miterlimit:10;" d="M 266.215064 83.298137 L 266.215064 83.298137 " transform="matrix(1.190972,0,0,-1.189815,0,256.999998)"/>
<path style="fill:none;stroke-width:0.5;stroke-linecap:butt;stroke-linejoin:round;stroke:rgb(14.99939%,14.99939%,14.99939%);stroke-opacity:1;stroke-miterlimit:10;" d="M 64.771149 87.671191 L 64.771149 87.671191 " transform="matrix(1.190972,0,0,-1.189815,0,256.999998)"/>
<path style="fill:none;stroke-width:0.5;stroke-linecap:butt;stroke-linejoin:round;stroke:rgb(14.99939%,14.99939%,14.99939%);stroke-opacity:1;stroke-miterlimit:10;" d="M 266.215064 87.671191 L 266.215064 87.671191 " transform="matrix(1.190972,0,0,-1.189815,0,256.999998)"/>
<path style="fill:none;stroke-width:0.5;stroke-linecap:butt;stroke-linejoin:round;stroke:rgb(14.99939%,14.99939%,14.99939%);stroke-opacity:1;stroke-miterlimit:10;" d="M 64.771149 91.246458 L 64.771149 91.246458 " transform="matrix(1.190972,0,0,-1.189815,0,256.999998)"/>
<path style="fill:none;stroke-width:0.5;stroke-linecap:butt;stroke-linejoin:round;stroke:rgb(14.99939%,14.99939%,14.99939%);stroke-opacity:1;stroke-miterlimit:10;" d="M 266.215064 91.246458 L 266.215064 91.246458 " transform="matrix(1.190972,0,0,-1.189815,0,256.999998)"/>
<path style="fill:none;stroke-width:0.5;stroke-linecap:butt;stroke-linejoin:round;stroke:rgb(14.99939%,14.99939%,14.99939%);stroke-opacity:1;stroke-miterlimit:10;" d="M 64.771149 94.270169 L 64.771149 94.270169 " transform="matrix(1.190972,0,0,-1.189815,0,256.999998)"/>
<path style="fill:none;stroke-width:0.5;stroke-linecap:butt;stroke-linejoin:round;stroke:rgb(14.99939%,14.99939%,14.99939%);stroke-opacity:1;stroke-miterlimit:10;" d="M 266.215064 94.270169 L 266.215064 94.270169 " transform="matrix(1.190972,0,0,-1.189815,0,256.999998)"/>
<path style="fill:none;stroke-width:0.5;stroke-linecap:butt;stroke-linejoin:round;stroke:rgb(14.99939%,14.99939%,14.99939%);stroke-opacity:1;stroke-miterlimit:10;" d="M 64.771149 96.886778 L 64.771149 96.886778 " transform="matrix(1.190972,0,0,-1.189815,0,256.999998)"/>
<path style="fill:none;stroke-width:0.5;stroke-linecap:butt;stroke-linejoin:round;stroke:rgb(14.99939%,14.99939%,14.99939%);stroke-opacity:1;stroke-miterlimit:10;" d="M 266.215064 96.886778 L 266.215064 96.886778 " transform="matrix(1.190972,0,0,-1.189815,0,256.999998)"/>
<path style="fill:none;stroke-width:0.5;stroke-linecap:butt;stroke-linejoin:round;stroke:rgb(14.99939%,14.99939%,14.99939%);stroke-opacity:1;stroke-miterlimit:10;" d="M 64.771149 99.194779 L 64.771149 99.194779 " transform="matrix(1.190972,0,0,-1.189815,0,256.999998)"/>
<path style="fill:none;stroke-width:0.5;stroke-linecap:butt;stroke-linejoin:round;stroke:rgb(14.99939%,14.99939%,14.99939%);stroke-opacity:1;stroke-miterlimit:10;" d="M 266.215064 99.194779 L 266.215064 99.194779 " transform="matrix(1.190972,0,0,-1.189815,0,256.999998)"/>
<path style="fill:none;stroke-width:0.5;stroke-linecap:butt;stroke-linejoin:round;stroke:rgb(14.99939%,14.99939%,14.99939%);stroke-opacity:1;stroke-miterlimit:10;" d="M 64.771149 114.851756 L 64.771149 114.851756 " transform="matrix(1.190972,0,0,-1.189815,0,256.999998)"/>
<path style="fill:none;stroke-width:0.5;stroke-linecap:butt;stroke-linejoin:round;stroke:rgb(14.99939%,14.99939%,14.99939%);stroke-opacity:1;stroke-miterlimit:10;" d="M 266.215064 114.851756 L 266.215064 114.851756 " transform="matrix(1.190972,0,0,-1.189815,0,256.999998)"/>
<path style="fill:none;stroke-width:0.5;stroke-linecap:butt;stroke-linejoin:round;stroke:rgb(14.99939%,14.99939%,14.99939%);stroke-opacity:1;stroke-miterlimit:10;" d="M 64.771149 122.800077 L 64.771149 122.800077 " transform="matrix(1.190972,0,0,-1.189815,0,256.999998)"/>
<path style="fill:none;stroke-width:0.5;stroke-linecap:butt;stroke-linejoin:round;stroke:rgb(14.99939%,14.99939%,14.99939%);stroke-opacity:1;stroke-miterlimit:10;" d="M 266.215064 122.800077 L 266.215064 122.800077 " transform="matrix(1.190972,0,0,-1.189815,0,256.999998)"/>
<path style="fill:none;stroke-width:0.5;stroke-linecap:butt;stroke-linejoin:round;stroke:rgb(14.99939%,14.99939%,14.99939%);stroke-opacity:1;stroke-miterlimit:10;" d="M 64.771149 128.440397 L 64.771149 128.440397 " transform="matrix(1.190972,0,0,-1.189815,0,256.999998)"/>
<path style="fill:none;stroke-width:0.5;stroke-linecap:butt;stroke-linejoin:round;stroke:rgb(14.99939%,14.99939%,14.99939%);stroke-opacity:1;stroke-miterlimit:10;" d="M 266.215064 128.440397 L 266.215064 128.440397 " transform="matrix(1.190972,0,0,-1.189815,0,256.999998)"/>
<path style="fill:none;stroke-width:0.5;stroke-linecap:butt;stroke-linejoin:round;stroke:rgb(14.99939%,14.99939%,14.99939%);stroke-opacity:1;stroke-miterlimit:10;" d="M 64.771149 132.81345 L 64.771149 132.81345 " transform="matrix(1.190972,0,0,-1.189815,0,256.999998)"/>
<path style="fill:none;stroke-width:0.5;stroke-linecap:butt;stroke-linejoin:round;stroke:rgb(14.99939%,14.99939%,14.99939%);stroke-opacity:1;stroke-miterlimit:10;" d="M 266.215064 132.81345 L 266.215064 132.81345 " transform="matrix(1.190972,0,0,-1.189815,0,256.999998)"/>
<path style="fill:none;stroke-width:0.5;stroke-linecap:butt;stroke-linejoin:round;stroke:rgb(14.99939%,14.99939%,14.99939%);stroke-opacity:1;stroke-miterlimit:10;" d="M 64.771149 136.388717 L 64.771149 136.388717 " transform="matrix(1.190972,0,0,-1.189815,0,256.999998)"/>
<path style="fill:none;stroke-width:0.5;stroke-linecap:butt;stroke-linejoin:round;stroke:rgb(14.99939%,14.99939%,14.99939%);stroke-opacity:1;stroke-miterlimit:10;" d="M 266.215064 136.388717 L 266.215064 136.388717 " transform="matrix(1.190972,0,0,-1.189815,0,256.999998)"/>
<path style="fill:none;stroke-width:0.5;stroke-linecap:butt;stroke-linejoin:round;stroke:rgb(14.99939%,14.99939%,14.99939%);stroke-opacity:1;stroke-miterlimit:10;" d="M 64.771149 139.412428 L 64.771149 139.412428 " transform="matrix(1.190972,0,0,-1.189815,0,256.999998)"/>
<path style="fill:none;stroke-width:0.5;stroke-linecap:butt;stroke-linejoin:round;stroke:rgb(14.99939%,14.99939%,14.99939%);stroke-opacity:1;stroke-miterlimit:10;" d="M 266.215064 139.412428 L 266.215064 139.412428 " transform="matrix(1.190972,0,0,-1.189815,0,256.999998)"/>
<path style="fill:none;stroke-width:0.5;stroke-linecap:butt;stroke-linejoin:round;stroke:rgb(14.99939%,14.99939%,14.99939%);stroke-opacity:1;stroke-miterlimit:10;" d="M 64.771149 142.029038 L 64.771149 142.029038 " transform="matrix(1.190972,0,0,-1.189815,0,256.999998)"/>
<path style="fill:none;stroke-width:0.5;stroke-linecap:butt;stroke-linejoin:round;stroke:rgb(14.99939%,14.99939%,14.99939%);stroke-opacity:1;stroke-miterlimit:10;" d="M 266.215064 142.029038 L 266.215064 142.029038 " transform="matrix(1.190972,0,0,-1.189815,0,256.999998)"/>
<path style="fill:none;stroke-width:0.5;stroke-linecap:butt;stroke-linejoin:round;stroke:rgb(14.99939%,14.99939%,14.99939%);stroke-opacity:1;stroke-miterlimit:10;" d="M 64.771149 144.337038 L 64.771149 144.337038 " transform="matrix(1.190972,0,0,-1.189815,0,256.999998)"/>
<path style="fill:none;stroke-width:0.5;stroke-linecap:butt;stroke-linejoin:round;stroke:rgb(14.99939%,14.99939%,14.99939%);stroke-opacity:1;stroke-miterlimit:10;" d="M 266.215064 144.337038 L 266.215064 144.337038 " transform="matrix(1.190972,0,0,-1.189815,0,256.999998)"/>
<path style="fill:none;stroke-width:0.5;stroke-linecap:butt;stroke-linejoin:round;stroke:rgb(14.99939%,14.99939%,14.99939%);stroke-opacity:1;stroke-miterlimit:10;" d="M 64.771149 159.994015 L 64.771149 159.994015 " transform="matrix(1.190972,0,0,-1.189815,0,256.999998)"/>
<path style="fill:none;stroke-width:0.5;stroke-linecap:butt;stroke-linejoin:round;stroke:rgb(14.99939%,14.99939%,14.99939%);stroke-opacity:1;stroke-miterlimit:10;" d="M 266.215064 159.994015 L 266.215064 159.994015 " transform="matrix(1.190972,0,0,-1.189815,0,256.999998)"/>
<path style="fill:none;stroke-width:0.5;stroke-linecap:butt;stroke-linejoin:round;stroke:rgb(14.99939%,14.99939%,14.99939%);stroke-opacity:1;stroke-miterlimit:10;" d="M 64.771149 167.942336 L 64.771149 167.942336 " transform="matrix(1.190972,0,0,-1.189815,0,256.999998)"/>
<path style="fill:none;stroke-width:0.5;stroke-linecap:butt;stroke-linejoin:round;stroke:rgb(14.99939%,14.99939%,14.99939%);stroke-opacity:1;stroke-miterlimit:10;" d="M 266.215064 167.942336 L 266.215064 167.942336 " transform="matrix(1.190972,0,0,-1.189815,0,256.999998)"/>
<path style="fill:none;stroke-width:0.5;stroke-linecap:butt;stroke-linejoin:round;stroke:rgb(14.99939%,14.99939%,14.99939%);stroke-opacity:1;stroke-miterlimit:10;" d="M 64.771149 173.582656 L 64.771149 173.582656 " transform="matrix(1.190972,0,0,-1.189815,0,256.999998)"/>
<path style="fill:none;stroke-width:0.5;stroke-linecap:butt;stroke-linejoin:round;stroke:rgb(14.99939%,14.99939%,14.99939%);stroke-opacity:1;stroke-miterlimit:10;" d="M 266.215064 173.582656 L 266.215064 173.582656 " transform="matrix(1.190972,0,0,-1.189815,0,256.999998)"/>
<path style="fill:none;stroke-width:0.5;stroke-linecap:butt;stroke-linejoin:round;stroke:rgb(14.99939%,14.99939%,14.99939%);stroke-opacity:1;stroke-miterlimit:10;" d="M 64.771149 177.95571 L 64.771149 177.95571 " transform="matrix(1.190972,0,0,-1.189815,0,256.999998)"/>
<path style="fill:none;stroke-width:0.5;stroke-linecap:butt;stroke-linejoin:round;stroke:rgb(14.99939%,14.99939%,14.99939%);stroke-opacity:1;stroke-miterlimit:10;" d="M 266.215064 177.95571 L 266.215064 177.95571 " transform="matrix(1.190972,0,0,-1.189815,0,256.999998)"/>
<path style="fill:none;stroke-width:0.5;stroke-linecap:butt;stroke-linejoin:round;stroke:rgb(14.99939%,14.99939%,14.99939%);stroke-opacity:1;stroke-miterlimit:10;" d="M 64.771149 181.530977 L 64.771149 181.530977 " transform="matrix(1.190972,0,0,-1.189815,0,256.999998)"/>
<path style="fill:none;stroke-width:0.5;stroke-linecap:butt;stroke-linejoin:round;stroke:rgb(14.99939%,14.99939%,14.99939%);stroke-opacity:1;stroke-miterlimit:10;" d="M 266.215064 181.530977 L 266.215064 181.530977 " transform="matrix(1.190972,0,0,-1.189815,0,256.999998)"/>
<path style="fill:none;stroke-width:0.5;stroke-linecap:butt;stroke-linejoin:round;stroke:rgb(14.99939%,14.99939%,14.99939%);stroke-opacity:1;stroke-miterlimit:10;" d="M 64.771149 184.551404 L 64.771149 184.551404 " transform="matrix(1.190972,0,0,-1.189815,0,256.999998)"/>
<path style="fill:none;stroke-width:0.5;stroke-linecap:butt;stroke-linejoin:round;stroke:rgb(14.99939%,14.99939%,14.99939%);stroke-opacity:1;stroke-miterlimit:10;" d="M 266.215064 184.551404 L 266.215064 184.551404 " transform="matrix(1.190972,0,0,-1.189815,0,256.999998)"/>
<path style="fill:none;stroke-width:0.5;stroke-linecap:butt;stroke-linejoin:round;stroke:rgb(14.99939%,14.99939%,14.99939%);stroke-opacity:1;stroke-miterlimit:10;" d="M 64.771149 187.171297 L 64.771149 187.171297 " transform="matrix(1.190972,0,0,-1.189815,0,256.999998)"/>
<path style="fill:none;stroke-width:0.5;stroke-linecap:butt;stroke-linejoin:round;stroke:rgb(14.99939%,14.99939%,14.99939%);stroke-opacity:1;stroke-miterlimit:10;" d="M 266.215064 187.171297 L 266.215064 187.171297 " transform="matrix(1.190972,0,0,-1.189815,0,256.999998)"/>
<path style="fill:none;stroke-width:0.5;stroke-linecap:butt;stroke-linejoin:round;stroke:rgb(14.99939%,14.99939%,14.99939%);stroke-opacity:1;stroke-miterlimit:10;" d="M 64.771149 189.479298 L 64.771149 189.479298 " transform="matrix(1.190972,0,0,-1.189815,0,256.999998)"/>
<path style="fill:none;stroke-width:0.5;stroke-linecap:butt;stroke-linejoin:round;stroke:rgb(14.99939%,14.99939%,14.99939%);stroke-opacity:1;stroke-miterlimit:10;" d="M 266.215064 189.479298 L 266.215064 189.479298 " transform="matrix(1.190972,0,0,-1.189815,0,256.999998)"/>
<path style=" stroke:none;fill-rule:nonzero;fill:rgb(14.99939%,14.99939%,14.99939%);fill-opacity:1;" d="M 30.246094 149.199219 L 16.601562 149.199219 L 16.601562 144.058594 C 16.601562 143.164062 16.660156 142.476562 16.734375 141.984375 C 16.847656 141.316406 17.078125 140.765625 17.382812 140.308594 C 17.6875 139.851562 18.125 139.488281 18.699219 139.203125 C 19.269531 138.9375 19.878906 138.785156 20.546875 138.785156 C 21.726562 138.785156 22.699219 139.164062 23.5 139.910156 C 24.300781 140.652344 24.699219 141.984375 24.699219 143.90625 L 24.699219 147.390625 L 30.246094 147.390625 L 30.246094 149.199219 M 23.097656 147.390625 L 23.097656 143.867188 C 23.097656 142.707031 22.890625 141.886719 22.453125 141.394531 C 22.011719 140.898438 21.402344 140.652344 20.601562 140.652344 C 20.03125 140.652344 19.554688 140.804688 19.136719 141.089844 C 18.734375 141.394531 18.46875 141.773438 18.335938 142.230469 C 18.257812 142.535156 18.222656 143.105469 18.222656 143.90625 L 18.222656 147.390625 L 23.097656 147.390625 "/>
<path style=" stroke:none;fill-rule:nonzero;fill:rgb(14.99939%,14.99939%,14.99939%);fill-opacity:1;" d="M 27.0625 129.953125 L 27.273438 128.21875 C 28.300781 128.503906 29.082031 129.019531 29.636719 129.742188 C 30.1875 130.484375 30.453125 131.417969 30.453125 132.558594 C 30.453125 134.007812 30.015625 135.167969 29.140625 136.003906 C 28.261719 136.84375 27.003906 137.261719 25.386719 137.261719 C 23.726562 137.261719 22.433594 136.84375 21.519531 135.988281 C 20.601562 135.148438 20.144531 134.027344 20.144531 132.65625 C 20.144531 131.339844 20.601562 130.257812 21.5 129.417969 C 22.394531 128.582031 23.652344 128.164062 25.289062 128.164062 C 25.40625 128.164062 25.539062 128.179688 25.730469 128.179688 L 25.730469 135.546875 C 26.835938 135.492188 27.652344 135.1875 28.226562 134.636719 C 28.796875 134.082031 29.082031 133.398438 29.082031 132.558594 C 29.082031 131.949219 28.929688 131.417969 28.605469 130.980469 C 28.300781 130.5625 27.785156 130.21875 27.0625 129.953125 M 24.355469 135.453125 L 24.355469 129.933594 C 23.519531 130.007812 22.910156 130.21875 22.488281 130.5625 C 21.839844 131.09375 21.519531 131.796875 21.519531 132.636719 C 21.519531 133.417969 21.785156 134.0625 22.300781 134.578125 C 22.8125 135.109375 23.5 135.398438 24.355469 135.453125 "/>
<path style=" stroke:none;fill-rule:nonzero;fill:rgb(14.99939%,14.99939%,14.99939%);fill-opacity:1;" d="M 30.246094 126.144531 L 20.355469 126.144531 L 20.355469 124.640625 L 21.859375 124.640625 C 21.175781 124.261719 20.71875 123.917969 20.488281 123.574219 C 20.261719 123.25 20.144531 122.890625 20.144531 122.507812 C 20.144531 121.9375 20.335938 121.367188 20.679688 120.777344 L 22.242188 121.367188 C 22.011719 121.785156 21.878906 122.183594 21.878906 122.585938 C 21.878906 122.964844 21.996094 123.289062 22.203125 123.574219 C 22.433594 123.878906 22.738281 124.089844 23.117188 124.203125 C 23.726562 124.394531 24.375 124.46875 25.082031 124.46875 L 30.246094 124.46875 L 30.246094 126.144531 "/>
<path style=" stroke:none;fill-rule:nonzero;fill:rgb(14.99939%,14.99939%,14.99939%);fill-opacity:1;" d="M 34.019531 119.785156 L 20.355469 119.785156 L 20.355469 118.261719 L 21.652344 118.261719 C 21.15625 117.921875 20.773438 117.5 20.527344 117.042969 C 20.277344 116.589844 20.144531 116.054688 20.144531 115.40625 C 20.144531 114.570312 20.375 113.828125 20.792969 113.179688 C 21.230469 112.53125 21.839844 112.058594 22.640625 111.714844 C 23.441406 111.390625 24.300781 111.21875 25.234375 111.21875 C 26.242188 111.21875 27.15625 111.410156 27.957031 111.773438 C 28.777344 112.132812 29.40625 112.667969 29.824219 113.351562 C 30.246094 114.035156 30.453125 114.761719 30.453125 115.523438 C 30.453125 116.09375 30.339844 116.589844 30.113281 117.027344 C 29.882812 117.484375 29.597656 117.84375 29.214844 118.109375 L 34.019531 118.109375 L 34.019531 119.785156 M 25.367188 118.261719 C 26.644531 118.261719 27.578125 118.015625 28.1875 117.5 C 28.796875 116.988281 29.082031 116.359375 29.082031 115.636719 C 29.082031 114.894531 28.777344 114.265625 28.148438 113.730469 C 27.519531 113.199219 26.546875 112.933594 25.214844 112.933594 C 23.957031 112.933594 23.023438 113.199219 22.394531 113.714844 C 21.785156 114.226562 21.460938 114.835938 21.460938 115.558594 C 21.460938 116.285156 21.804688 116.910156 22.46875 117.445312 C 23.136719 117.996094 24.109375 118.261719 25.367188 118.261719 "/>
<path style=" stroke:none;fill-rule:nonzero;fill:rgb(14.99939%,14.99939%,14.99939%);fill-opacity:1;" d="M 30.246094 109.238281 L 16.601562 109.238281 L 16.601562 107.5625 L 30.246094 107.5625 L 30.246094 109.238281 "/>
<path style=" stroke:none;fill-rule:nonzero;fill:rgb(14.99939%,14.99939%,14.99939%);fill-opacity:1;" d="M 27.0625 98.21875 L 27.273438 96.484375 C 28.300781 96.769531 29.082031 97.285156 29.636719 98.007812 C 30.1875 98.75 30.453125 99.683594 30.453125 100.824219 C 30.453125 102.273438 30.015625 103.433594 29.140625 104.269531 C 28.261719 105.109375 27.003906 105.527344 25.386719 105.527344 C 23.726562 105.527344 22.433594 105.109375 21.519531 104.25 C 20.601562 103.414062 20.144531 102.292969 20.144531 100.921875 C 20.144531 99.605469 20.601562 98.523438 21.5 97.683594 C 22.394531 96.847656 23.652344 96.425781 25.289062 96.425781 C 25.40625 96.425781 25.539062 96.445312 25.730469 96.445312 L 25.730469 103.8125 C 26.835938 103.757812 27.652344 103.453125 28.226562 102.898438 C 28.796875 102.347656 29.082031 101.664062 29.082031 100.824219 C 29.082031 100.214844 28.929688 99.683594 28.605469 99.246094 C 28.300781 98.828125 27.785156 98.484375 27.0625 98.21875 M 24.355469 103.71875 L 24.355469 98.199219 C 23.519531 98.273438 22.910156 98.484375 22.488281 98.828125 C 21.839844 99.359375 21.519531 100.0625 21.519531 100.902344 C 21.519531 101.683594 21.785156 102.328125 22.300781 102.84375 C 22.8125 103.375 23.5 103.660156 24.355469 103.71875 "/>
<path style=" stroke:none;fill-rule:nonzero;fill:rgb(14.99939%,14.99939%,14.99939%);fill-opacity:1;" d="M 30.246094 95.515625 L 25.101562 91.898438 L 20.355469 95.246094 L 20.355469 93.152344 L 22.679688 91.628906 C 23.136719 91.363281 23.5 91.136719 23.785156 90.945312 C 23.386719 90.679688 23.023438 90.410156 22.699219 90.183594 L 20.355469 88.527344 L 20.355469 86.527344 L 25.023438 89.9375 L 30.246094 86.261719 L 30.246094 88.316406 L 27.175781 90.355469 L 26.339844 90.886719 L 30.246094 93.476562 L 30.246094 95.515625 "/>
<path style=" stroke:none;fill-rule:nonzero;fill:rgb(14.99939%,14.99939%,14.99939%);fill-opacity:1;" d="M 18.527344 84.871094 L 16.601562 84.871094 L 16.601562 83.195312 L 18.527344 83.195312 L 18.527344 84.871094 M 30.246094 84.871094 L 20.355469 84.871094 L 20.355469 83.195312 L 30.246094 83.195312 L 30.246094 84.871094 "/>
<path style=" stroke:none;fill-rule:nonzero;fill:rgb(14.99939%,14.99939%,14.99939%);fill-opacity:1;" d="M 28.738281 76.992188 L 30.226562 76.742188 C 30.300781 77.238281 30.359375 77.65625 30.359375 78.019531 C 30.359375 78.628906 30.265625 79.105469 30.09375 79.425781 C 29.902344 79.769531 29.65625 80 29.332031 80.132812 C 29.027344 80.285156 28.359375 80.339844 27.347656 80.339844 L 21.671875 80.339844 L 21.671875 81.558594 L 20.355469 81.558594 L 20.355469 80.339844 L 17.917969 80.339844 L 16.90625 78.683594 L 20.355469 78.683594 L 20.355469 76.992188 L 21.671875 76.992188 L 21.671875 78.683594 L 27.445312 78.683594 C 27.941406 78.683594 28.246094 78.667969 28.378906 78.589844 C 28.511719 78.53125 28.625 78.4375 28.703125 78.304688 C 28.777344 78.171875 28.816406 77.980469 28.816406 77.734375 C 28.816406 77.542969 28.796875 77.296875 28.738281 76.992188 "/>
<path style=" stroke:none;fill-rule:nonzero;fill:rgb(14.99939%,14.99939%,14.99939%);fill-opacity:1;" d="M 34.039062 75.429688 L 32.457031 75.621094 C 32.550781 75.257812 32.609375 74.933594 32.609375 74.648438 C 32.609375 74.289062 32.53125 74.003906 32.417969 73.773438 C 32.285156 73.546875 32.113281 73.375 31.902344 73.222656 C 31.730469 73.105469 31.3125 72.9375 30.644531 72.707031 C 30.550781 72.667969 30.417969 72.632812 30.246094 72.554688 L 20.355469 76.304688 L 20.355469 74.496094 L 26.089844 72.441406 C 26.816406 72.175781 27.578125 71.945312 28.378906 71.738281 C 27.617188 71.546875 26.851562 71.316406 26.128906 71.050781 L 20.355469 68.9375 L 20.355469 67.261719 L 30.398438 71.011719 C 31.464844 71.433594 32.207031 71.738281 32.628906 71.945312 C 33.179688 72.25 33.578125 72.59375 33.847656 72.972656 C 34.09375 73.355469 34.226562 73.8125 34.226562 74.34375 C 34.226562 74.6875 34.152344 75.050781 34.039062 75.429688 "/>
<g clip-path="url(#clip15)" clip-rule="nonzero">
<path style="fill:none;stroke-width:1.75;stroke-linecap:round;stroke-linejoin:round;stroke:rgb(29.803467%,44.7052%,69.020081%);stroke-opacity:1;stroke-miterlimit:10;" d="M 64.771149 181.153424 L 87.153077 142.107831 L 109.535006 103.439793 L 131.920214 84.338871 L 154.302142 80.100424 L 176.684071 79.47664 L 199.065999 79.378148 L 221.451208 79.368298 L 243.833136 79.368298 L 266.215064 79.371581 " transform="matrix(1.190972,0,0,-1.189815,0,256.999998)"/>
</g>
</g>
</svg>
