<?xml version="1.0" encoding="UTF-8"?>
<!DOCTYPE svg PUBLIC "-//W3C//DTD SVG 1.1//EN" "http://www.w3.org/Graphics/SVG/1.1/DTD/svg11.dtd">
<svg version="1.1" xmlns="http://www.w3.org/2000/svg" xmlns:xlink="http://www.w3.org/1999/xlink" x="0" y="0" width="150" height="150" viewBox="0, 0, 150, 150">
  <g id="Layer_1">
    <g>
      <path d="M25,96.332 L25,110 C25,110.27 25.07,110.523 25.195,110.75 C27.164,118.91 44.773,125 66.668,125 C88.512,125 106.09,118.934 108.125,110.809 C108.258,110.567 108.332,110.293 108.332,110 L108.332,96.336 C101.442,101.184 87.242,105.001 66.668,105.001 C46.09,105.001 31.891,101.184 25,96.333" fill="#000000"/>
      <path d="M113.332,108.258 C113.332,108.582 113.254,108.891 113.113,109.156 C112.879,110.137 112.445,111.082 111.848,112 C119.019,109.477 123.793,105.989 124.793,101.988 C124.925,101.75 125,101.477 125,101.184 L125,87.516 L113.332,93 L113.332,108.258" fill="#000000"/>
      <path d="M71.012,84.93 C69.563,84.977 68.114,85 66.668,85 C65.219,85 63.762,84.977 62.309,84.93 C50.075,84.594 40.325,82.868 33.305,80.403 C30.008,79.289 27.184,77.981 25,76.481 L25,92.149 C29.742,97.102 45.656,101.668 66.668,101.668 C87.676,101.668 103.59,97.102 108.332,92.149 L108.332,76.481 C106.137,77.989 103.285,79.309 99.957,80.426 C92.941,82.879 83.211,84.598 71.012,84.93" fill="#000000"/>
      <path d="M111.668,73.332 L111.668,89.578 C118.121,87.859 122.789,85.641 125,83.332 L125,67.664 C122.805,69.172 119.953,70.492 116.625,71.609 L111.668,73.332" fill="#000000"/>
      <path d="M25,56.633 L25,72.297 C29.398,76.887 43.387,81.149 62.145,81.746 C62.336,81.75 62.536,81.754 62.727,81.758 C63.27,81.774 63.813,81.789 64.364,81.797 C65.125,81.809 65.891,81.817 66.668,81.817 C67.442,81.817 68.211,81.809 68.973,81.797 C69.524,81.789 70.067,81.774 70.606,81.758 C70.801,81.754 70.996,81.75 71.192,81.746 C89.946,81.149 103.938,76.887 108.333,72.297 L108.333,56.633 C100.219,62.203 83.075,65.149 66.669,65.149 C50.263,65.149 33.114,62.203 25.001,56.633" fill="#000000"/>
      <path d="M66.668,33.816 C41.539,33.816 27.172,40.852 25.242,48 C25.101,48.246 25,48.512 25,48.817 L25,52.661 C29.726,57.594 45.527,62.149 66.668,62.149 C87.809,62.149 103.606,57.594 108.332,52.661 L108.332,48.817 C108.332,48.536 108.238,48.286 108.109,48.055 C106.238,40.887 91.859,33.817 66.668,33.817" fill="#000000"/>
      <path d="M111.668,65.836 L111.668,69.738 C118.133,68.02 122.785,65.793 125,63.481 L125,47.812 C121.781,50.023 117.125,51.816 111.668,53.18 L111.668,65.836" fill="#000000"/>
      <path d="M124.773,39.238 C122.906,32.066 108.523,25 83.332,25 C66.453,25 54.461,28.18 47.801,32.43 C53.602,31.207 60.446,30.484 68.332,30.484 C94.535,30.484 109.488,38.383 111.434,46.394 C111.571,46.652 111.668,46.933 111.668,47.25 L111.668,50.082 C118.133,48.367 122.789,46.152 125,43.844 L125,40 C125,39.719 124.907,39.469 124.774,39.238" fill="#000000"/>
    </g>
  </g>
</svg>
