<?xml version="1.0" encoding="UTF-8"?>
<svg xmlns="http://www.w3.org/2000/svg" xmlns:xlink="http://www.w3.org/1999/xlink" width="227pt" height="167pt" viewBox="0 0 227 167" version="1.1">
<g id="surface1">
<path style="fill-rule:nonzero;fill:rgb(100%,100%,100%);fill-opacity:1;stroke-width:1.49449;stroke-linecap:butt;stroke-linejoin:miter;stroke:rgb(0%,0%,0%);stroke-opacity:1;stroke-miterlimit:10;" d="M 149.441563 -82.194437 C 149.441563 -86.319437 146.097813 -89.663187 141.968906 -89.663187 C 137.843906 -89.663187 134.49625 -86.319437 134.49625 -82.194437 C 134.49625 -78.065531 137.843906 -74.721781 141.968906 -74.721781 C 146.097813 -74.721781 149.441563 -78.065531 149.441563 -82.194437 Z M 149.441563 -82.194437 " transform="matrix(1,0,0,-1,-125.715,-73.171)"/>
<path style="fill-rule:nonzero;fill:rgb(100%,100%,100%);fill-opacity:1;stroke-width:1.49449;stroke-linecap:butt;stroke-linejoin:miter;stroke:rgb(0%,0%,0%);stroke-opacity:1;stroke-miterlimit:10;" d="M 186.800938 -89.663187 C 186.800938 -93.792094 183.457188 -97.135844 179.328281 -97.135844 C 175.203281 -97.135844 171.859531 -93.792094 171.859531 -89.663187 C 171.859531 -85.538187 175.203281 -82.194437 179.328281 -82.194437 C 183.457188 -82.194437 186.800938 -85.538187 186.800938 -89.663187 Z M 186.800938 -89.663187 " transform="matrix(1,0,0,-1,-125.715,-73.171)"/>
<path style="fill-rule:nonzero;fill:rgb(100%,100%,100%);fill-opacity:1;stroke-width:1.49449;stroke-linecap:butt;stroke-linejoin:miter;stroke:rgb(0%,0%,0%);stroke-opacity:1;stroke-miterlimit:10;" d="M 171.859531 -127.026469 C 171.859531 -131.151469 168.511875 -134.499125 164.386875 -134.499125 C 160.257969 -134.499125 156.914219 -131.151469 156.914219 -127.026469 C 156.914219 -122.897562 160.257969 -119.553812 164.386875 -119.553812 C 168.511875 -119.553812 171.859531 -122.897562 171.859531 -127.026469 Z M 171.859531 -127.026469 " transform="matrix(1,0,0,-1,-125.715,-73.171)"/>
<path style="fill-rule:nonzero;fill:rgb(100%,100%,100%);fill-opacity:1;stroke-width:1.49449;stroke-linecap:butt;stroke-linejoin:miter;stroke:rgb(0%,0%,0%);stroke-opacity:1;stroke-miterlimit:10;" d="M 201.74625 -112.081156 C 201.74625 -116.206156 198.4025 -119.553812 194.273594 -119.553812 C 190.148594 -119.553812 186.800938 -116.206156 186.800938 -112.081156 C 186.800938 -107.956156 190.148594 -104.6085 194.273594 -104.6085 C 198.4025 -104.6085 201.74625 -107.956156 201.74625 -112.081156 Z M 201.74625 -112.081156 " transform="matrix(1,0,0,-1,-125.715,-73.171)"/>
<path style="fill-rule:nonzero;fill:rgb(100%,100%,100%);fill-opacity:1;stroke-width:1.49449;stroke-linecap:butt;stroke-linejoin:miter;stroke:rgb(0%,0%,0%);stroke-opacity:1;stroke-miterlimit:10;" d="M 141.968906 -119.553812 C 141.968906 -123.678812 138.625156 -127.026469 134.49625 -127.026469 C 130.37125 -127.026469 127.023594 -123.678812 127.023594 -119.553812 C 127.023594 -115.424906 130.37125 -112.081156 134.49625 -112.081156 C 138.625156 -112.081156 141.968906 -115.424906 141.968906 -119.553812 Z M 141.968906 -119.553812 " transform="matrix(1,0,0,-1,-125.715,-73.171)"/>
<path style="fill-rule:nonzero;fill:rgb(100%,100%,100%);fill-opacity:1;stroke-width:1.49449;stroke-linecap:butt;stroke-linejoin:miter;stroke:rgb(0%,0%,0%);stroke-opacity:1;stroke-miterlimit:10;" d="M 321.300938 -104.6085 C 321.300938 -108.737406 317.953281 -112.081156 313.828281 -112.081156 C 309.699375 -112.081156 306.355625 -108.737406 306.355625 -104.6085 C 306.355625 -100.4835 309.699375 -97.135844 313.828281 -97.135844 C 317.953281 -97.135844 321.300938 -100.4835 321.300938 -104.6085 Z M 321.300938 -104.6085 " transform="matrix(1,0,0,-1,-125.715,-73.171)"/>
<path style="fill-rule:nonzero;fill:rgb(100%,100%,100%);fill-opacity:1;stroke-width:1.49449;stroke-linecap:butt;stroke-linejoin:miter;stroke:rgb(0%,0%,0%);stroke-opacity:1;stroke-miterlimit:10;" d="M 283.937656 -134.499125 C 283.937656 -138.624125 280.593906 -141.967875 276.465 -141.967875 C 272.34 -141.967875 268.99625 -138.624125 268.99625 -134.499125 C 268.99625 -130.370219 272.34 -127.026469 276.465 -127.026469 C 280.593906 -127.026469 283.937656 -130.370219 283.937656 -134.499125 Z M 283.937656 -134.499125 " transform="matrix(1,0,0,-1,-125.715,-73.171)"/>
<path style="fill-rule:nonzero;fill:rgb(100%,100%,100%);fill-opacity:1;stroke-width:1.49449;stroke-linecap:butt;stroke-linejoin:miter;stroke:rgb(0%,0%,0%);stroke-opacity:1;stroke-miterlimit:10;" d="M 328.769688 -134.499125 C 328.769688 -138.624125 325.425938 -141.967875 321.300938 -141.967875 C 317.172031 -141.967875 313.828281 -138.624125 313.828281 -134.499125 C 313.828281 -130.370219 317.172031 -127.026469 321.300938 -127.026469 C 325.425938 -127.026469 328.769688 -130.370219 328.769688 -134.499125 Z M 328.769688 -134.499125 " transform="matrix(1,0,0,-1,-125.715,-73.171)"/>
<path style="fill-rule:nonzero;fill:rgb(100%,100%,100%);fill-opacity:1;stroke-width:1.49449;stroke-linecap:butt;stroke-linejoin:miter;stroke:rgb(0%,0%,0%);stroke-opacity:1;stroke-miterlimit:10;" d="M 306.355625 -164.385844 C 306.355625 -168.510844 303.007969 -171.8585 298.882969 -171.8585 C 294.757969 -171.8585 291.410313 -168.510844 291.410313 -164.385844 C 291.410313 -160.260844 294.757969 -156.913187 298.882969 -156.913187 C 303.007969 -156.913187 306.355625 -160.260844 306.355625 -164.385844 Z M 306.355625 -164.385844 " transform="matrix(1,0,0,-1,-125.715,-73.171)"/>
<path style="fill-rule:nonzero;fill:rgb(100%,100%,100%);fill-opacity:1;stroke-width:1.49449;stroke-linecap:butt;stroke-linejoin:miter;stroke:rgb(0%,0%,0%);stroke-opacity:1;stroke-miterlimit:10;" d="M 336.242344 -156.913187 C 336.242344 -161.042094 332.898594 -164.385844 328.769688 -164.385844 C 324.644688 -164.385844 321.300938 -161.042094 321.300938 -156.913187 C 321.300938 -152.788187 324.644688 -149.440531 328.769688 -149.440531 C 332.898594 -149.440531 336.242344 -152.788187 336.242344 -156.913187 Z M 336.242344 -156.913187 " transform="matrix(1,0,0,-1,-125.715,-73.171)"/>
<path style="fill-rule:nonzero;fill:rgb(100%,100%,100%);fill-opacity:1;stroke-width:1.49449;stroke-linecap:butt;stroke-linejoin:miter;stroke:rgb(0%,0%,0%);stroke-opacity:1;stroke-miterlimit:10;" d="M 351.187656 -127.026469 C 351.187656 -131.151469 347.843906 -134.499125 343.715 -134.499125 C 339.59 -134.499125 336.242344 -131.151469 336.242344 -127.026469 C 336.242344 -122.897562 339.59 -119.553812 343.715 -119.553812 C 347.843906 -119.553812 351.187656 -122.897562 351.187656 -127.026469 Z M 351.187656 -127.026469 " transform="matrix(1,0,0,-1,-125.715,-73.171)"/>
<path style="fill-rule:nonzero;fill:rgb(100%,100%,100%);fill-opacity:1;stroke-width:1.49449;stroke-linecap:butt;stroke-linejoin:miter;stroke:rgb(0%,0%,0%);stroke-opacity:1;stroke-miterlimit:10;" d="M 201.74625 -186.803812 C 201.74625 -190.928812 198.4025 -194.272562 194.273594 -194.272562 C 190.148594 -194.272562 186.800938 -190.928812 186.800938 -186.803812 C 186.800938 -182.674906 190.148594 -179.331156 194.273594 -179.331156 C 198.4025 -179.331156 201.74625 -182.674906 201.74625 -186.803812 Z M 201.74625 -186.803812 " transform="matrix(1,0,0,-1,-125.715,-73.171)"/>
<path style="fill-rule:nonzero;fill:rgb(100%,100%,100%);fill-opacity:1;stroke-width:1.49449;stroke-linecap:butt;stroke-linejoin:miter;stroke:rgb(0%,0%,0%);stroke-opacity:1;stroke-miterlimit:10;" d="M 239.105625 -201.745219 C 239.105625 -205.874125 235.761875 -209.217875 231.632969 -209.217875 C 227.507969 -209.217875 224.164219 -205.874125 224.164219 -201.745219 C 224.164219 -197.620219 227.507969 -194.272562 231.632969 -194.272562 C 235.761875 -194.272562 239.105625 -197.620219 239.105625 -201.745219 Z M 239.105625 -201.745219 " transform="matrix(1,0,0,-1,-125.715,-73.171)"/>
<path style="fill-rule:nonzero;fill:rgb(100%,100%,100%);fill-opacity:1;stroke-width:1.49449;stroke-linecap:butt;stroke-linejoin:miter;stroke:rgb(0%,0%,0%);stroke-opacity:1;stroke-miterlimit:10;" d="M 224.164219 -231.635844 C 224.164219 -235.760844 220.816563 -239.104594 216.691563 -239.104594 C 212.562656 -239.104594 209.218906 -235.760844 209.218906 -231.635844 C 209.218906 -227.506937 212.562656 -224.163187 216.691563 -224.163187 C 220.816563 -224.163187 224.164219 -227.506937 224.164219 -231.635844 Z M 224.164219 -231.635844 " transform="matrix(1,0,0,-1,-125.715,-73.171)"/>
<path style="fill-rule:nonzero;fill:rgb(100%,100%,100%);fill-opacity:1;stroke-width:1.49449;stroke-linecap:butt;stroke-linejoin:miter;stroke:rgb(0%,0%,0%);stroke-opacity:1;stroke-miterlimit:10;" d="M 194.273594 -224.163187 C 194.273594 -228.288187 190.929844 -231.635844 186.800938 -231.635844 C 182.675938 -231.635844 179.328281 -228.288187 179.328281 -224.163187 C 179.328281 -220.034281 182.675938 -216.690531 186.800938 -216.690531 C 190.929844 -216.690531 194.273594 -220.034281 194.273594 -224.163187 Z M 194.273594 -224.163187 " transform="matrix(1,0,0,-1,-125.715,-73.171)"/>
<path style="fill:none;stroke-width:1.49449;stroke-linecap:butt;stroke-linejoin:miter;stroke:rgb(0%,0%,0%);stroke-opacity:1;stroke-miterlimit:10;" d="M 140.359531 -90.237406 L 136.105625 -111.506937 " transform="matrix(1,0,0,-1,-125.715,-73.171)"/>
<path style="fill:none;stroke-width:1.49449;stroke-linecap:butt;stroke-linejoin:miter;stroke:rgb(0%,0%,0%);stroke-opacity:1;stroke-miterlimit:10;" d="M 150.015781 -83.799906 L 171.285313 -88.057719 " transform="matrix(1,0,0,-1,-125.715,-73.171)"/>
<path style="fill:none;stroke-width:1.49449;stroke-linecap:butt;stroke-linejoin:miter;stroke:rgb(0%,0%,0%);stroke-opacity:1;stroke-miterlimit:10;" d="M 176.2775 -97.299906 L 167.437656 -119.38975 " transform="matrix(1,0,0,-1,-125.715,-73.171)"/>
<path style="fill:none;stroke-width:1.49449;stroke-linecap:butt;stroke-linejoin:miter;stroke:rgb(0%,0%,0%);stroke-opacity:1;stroke-miterlimit:10;" d="M 189.718906 -105.245219 L 183.886875 -96.499125 " transform="matrix(1,0,0,-1,-125.715,-73.171)"/>
<path style="fill:none;stroke-width:1.49449;stroke-linecap:butt;stroke-linejoin:miter;stroke:rgb(0%,0%,0%);stroke-opacity:1;stroke-miterlimit:10;" d="M 186.976719 -115.729594 L 171.68375 -123.378031 " transform="matrix(1,0,0,-1,-125.715,-73.171)"/>
<path style="fill:none;stroke-width:1.49449;stroke-linecap:butt;stroke-linejoin:miter;stroke:rgb(0%,0%,0%);stroke-opacity:1;stroke-miterlimit:10;" d="M 187.140781 -108.006937 L 149.101719 -86.268656 " transform="matrix(1,0,0,-1,-125.715,-73.171)"/>
<path style="fill:none;stroke-width:1.49449;stroke-linecap:butt;stroke-linejoin:miter;stroke:rgb(0%,0%,0%);stroke-opacity:1;stroke-miterlimit:10;" d="M 142.472813 -121.546 L 156.410313 -125.030375 " transform="matrix(1,0,0,-1,-125.715,-73.171)"/>
<path style="fill:none;stroke-width:1.49449;stroke-linecap:butt;stroke-linejoin:miter;stroke:rgb(0%,0%,0%);stroke-opacity:1;stroke-miterlimit:10;" d="M 141.332188 -114.995219 L 172.49625 -94.221781 " transform="matrix(1,0,0,-1,-125.715,-73.171)"/>
<path style="fill:none;stroke-width:1.49449;stroke-linecap:butt;stroke-linejoin:miter;stroke:rgb(0%,0%,0%);stroke-opacity:1;stroke-miterlimit:10;" d="M 282.597813 -129.592875 L 307.699375 -109.510844 " transform="matrix(1,0,0,-1,-125.715,-73.171)"/>
<path style="fill:none;stroke-width:1.49449;stroke-linecap:butt;stroke-linejoin:miter;stroke:rgb(0%,0%,0%);stroke-opacity:1;stroke-miterlimit:10;" d="M 320.4025 -109.538187 L 337.140781 -122.092875 " transform="matrix(1,0,0,-1,-125.715,-73.171)"/>
<path style="fill:none;stroke-width:1.49449;stroke-linecap:butt;stroke-linejoin:miter;stroke:rgb(0%,0%,0%);stroke-opacity:1;stroke-miterlimit:10;" d="M 335.918125 -129.624125 L 329.097813 -131.897562 " transform="matrix(1,0,0,-1,-125.715,-73.171)"/>
<path style="fill:none;stroke-width:1.49449;stroke-linecap:butt;stroke-linejoin:miter;stroke:rgb(0%,0%,0%);stroke-opacity:1;stroke-miterlimit:10;" d="M 313.156406 -134.499125 L 284.609531 -134.499125 " transform="matrix(1,0,0,-1,-125.715,-73.171)"/>
<path style="fill:none;stroke-width:1.49449;stroke-linecap:butt;stroke-linejoin:miter;stroke:rgb(0%,0%,0%);stroke-opacity:1;stroke-miterlimit:10;" d="M 316.367344 -141.073344 L 303.812656 -157.811625 " transform="matrix(1,0,0,-1,-125.715,-73.171)"/>
<path style="fill:none;stroke-width:1.49449;stroke-linecap:butt;stroke-linejoin:miter;stroke:rgb(0%,0%,0%);stroke-opacity:1;stroke-miterlimit:10;" d="M 323.898594 -142.296 L 326.172031 -149.116312 " transform="matrix(1,0,0,-1,-125.715,-73.171)"/>
<path style="fill:none;stroke-width:1.49449;stroke-linecap:butt;stroke-linejoin:miter;stroke:rgb(0%,0%,0%);stroke-opacity:1;stroke-miterlimit:10;" d="M 293.953281 -157.811625 L 281.398594 -141.073344 " transform="matrix(1,0,0,-1,-125.715,-73.171)"/>
<path style="fill:none;stroke-width:1.49449;stroke-linecap:butt;stroke-linejoin:miter;stroke:rgb(0%,0%,0%);stroke-opacity:1;stroke-miterlimit:10;" d="M 306.859531 -162.393656 L 320.797031 -158.909281 " transform="matrix(1,0,0,-1,-125.715,-73.171)"/>
<path style="fill:none;stroke-width:1.49449;stroke-linecap:butt;stroke-linejoin:miter;stroke:rgb(0%,0%,0%);stroke-opacity:1;stroke-miterlimit:10;" d="M 332.418125 -149.616312 L 340.066563 -134.323344 " transform="matrix(1,0,0,-1,-125.715,-73.171)"/>
<path style="fill:none;stroke-width:1.49449;stroke-linecap:butt;stroke-linejoin:miter;stroke:rgb(0%,0%,0%);stroke-opacity:1;stroke-miterlimit:10;" d="M 318.699375 -126.698344 L 313.828281 -112.081156 " transform="matrix(1,0,0,-1,-125.715,-73.171)"/>
<path style="fill:none;stroke-width:1.49449;stroke-linecap:butt;stroke-linejoin:miter;stroke:rgb(0%,0%,0%);stroke-opacity:1;stroke-miterlimit:10;" d="M 283.925938 -137.694437 L 321.312656 -153.717875 " transform="matrix(1,0,0,-1,-125.715,-73.171)"/>
<path style="fill:none;stroke-width:1.49449;stroke-linecap:butt;stroke-linejoin:miter;stroke:rgb(0%,0%,0%);stroke-opacity:1;stroke-miterlimit:10;" d="M 300.875156 -156.409281 L 311.832188 -112.585062 " transform="matrix(1,0,0,-1,-125.715,-73.171)"/>
<path style="fill:none;stroke-width:1.49449;stroke-linecap:butt;stroke-linejoin:miter;stroke:rgb(0%,0%,0%);stroke-opacity:1;stroke-miterlimit:10;" d="M 192.664219 -194.846781 L 188.410313 -216.116312 " transform="matrix(1,0,0,-1,-125.715,-73.171)"/>
<path style="fill:none;stroke-width:1.49449;stroke-linecap:butt;stroke-linejoin:miter;stroke:rgb(0%,0%,0%);stroke-opacity:1;stroke-miterlimit:10;" d="M 201.910313 -189.854594 L 224.000156 -198.690531 " transform="matrix(1,0,0,-1,-125.715,-73.171)"/>
<path style="fill:none;stroke-width:1.49449;stroke-linecap:butt;stroke-linejoin:miter;stroke:rgb(0%,0%,0%);stroke-opacity:1;stroke-miterlimit:10;" d="M 227.984531 -209.042094 L 220.34 -224.338969 " transform="matrix(1,0,0,-1,-125.715,-73.171)"/>
<path style="fill:none;stroke-width:1.49449;stroke-linecap:butt;stroke-linejoin:miter;stroke:rgb(0%,0%,0%);stroke-opacity:1;stroke-miterlimit:10;" d="M 208.715 -229.63975 L 194.7775 -226.155375 " transform="matrix(1,0,0,-1,-125.715,-73.171)"/>
<path style="fill:none;stroke-width:1.49449;stroke-linecap:butt;stroke-linejoin:miter;stroke:rgb(0%,0%,0%);stroke-opacity:1;stroke-miterlimit:10;" d="M 197.863438 -193.9835 L 213.101719 -224.45225 " transform="matrix(1,0,0,-1,-125.715,-73.171)"/>
<path style="fill:none;stroke-width:1.49449;stroke-linecap:butt;stroke-linejoin:miter;stroke:rgb(0%,0%,0%);stroke-opacity:1;stroke-miterlimit:10;" d="M 193.980625 -220.573344 L 224.453281 -205.335062 " transform="matrix(1,0,0,-1,-125.715,-73.171)"/>
<path style="fill:none;stroke-width:1.49449;stroke-linecap:butt;stroke-linejoin:miter;stroke:rgb(0%,0%,0%);stroke-opacity:1;stroke-miterlimit:10;" d="M 168.035313 -134.323344 L 190.625156 -179.503031 " transform="matrix(1,0,0,-1,-125.715,-73.171)"/>
<path style="fill:none;stroke-width:1.49449;stroke-linecap:butt;stroke-linejoin:miter;stroke:rgb(0%,0%,0%);stroke-opacity:1;stroke-miterlimit:10;" d="M 238.80875 -197.760844 L 291.707188 -168.370219 " transform="matrix(1,0,0,-1,-125.715,-73.171)"/>
<path style="fill:none;stroke-width:1.49449;stroke-linecap:butt;stroke-linejoin:miter;stroke:rgb(0%,0%,0%);stroke-opacity:1;stroke-miterlimit:10;" d="M 305.668125 -103.70225 L 187.488438 -90.573344 " transform="matrix(1,0,0,-1,-125.715,-73.171)"/>
<path style="fill:none;stroke-width:1.49449;stroke-linecap:butt;stroke-linejoin:miter;stroke:rgb(0%,0%,0%);stroke-opacity:1;stroke-miterlimit:10;" d="M 202.207188 -114.245219 L 268.535313 -132.335062 " transform="matrix(1,0,0,-1,-125.715,-73.171)"/>
</g>
</svg>
