<?xml version="1.0" encoding="UTF-8"?>
<svg xmlns="http://www.w3.org/2000/svg" xmlns:xlink="http://www.w3.org/1999/xlink" width="197pt" height="122pt" viewBox="0 0 197 122" version="1.1">
<g id="surface1">
<path style="fill-rule:nonzero;fill:rgb(100%,100%,100%);fill-opacity:1;stroke-width:1.49449;stroke-linecap:butt;stroke-linejoin:miter;stroke:rgb(0%,0%,0%);stroke-opacity:1;stroke-miterlimit:10;" d="M 119.553594 -74.722438 C 119.553594 -78.847438 116.209844 -82.191188 112.080938 -82.191188 C 107.955938 -82.191188 104.608281 -78.847438 104.608281 -74.722438 C 104.608281 -70.593531 107.955938 -67.249781 112.080938 -67.249781 C 116.209844 -67.249781 119.553594 -70.593531 119.553594 -74.722438 Z M 119.553594 -74.722438 " transform="matrix(1,0,0,-1,-50.995,-65.699)"/>
<path style="fill-rule:nonzero;fill:rgb(100%,100%,100%);fill-opacity:1;stroke-width:1.49449;stroke-linecap:butt;stroke-linejoin:miter;stroke:rgb(0%,0%,0%);stroke-opacity:1;stroke-miterlimit:10;" d="M 186.803594 -82.191188 C 186.803594 -86.320094 183.455938 -89.663844 179.330938 -89.663844 C 175.202031 -89.663844 171.858281 -86.320094 171.858281 -82.191188 C 171.858281 -78.066188 175.202031 -74.722438 179.330938 -74.722438 C 183.455938 -74.722438 186.803594 -78.066188 186.803594 -82.191188 Z M 186.803594 -82.191188 " transform="matrix(1,0,0,-1,-50.995,-65.699)"/>
<path style="fill-rule:nonzero;fill:rgb(100%,100%,100%);fill-opacity:1;stroke-width:1.49449;stroke-linecap:butt;stroke-linejoin:miter;stroke:rgb(0%,0%,0%);stroke-opacity:1;stroke-miterlimit:10;" d="M 82.194219 -149.441188 C 82.194219 -153.570094 78.846563 -156.913844 74.721563 -156.913844 C 70.592656 -156.913844 67.248906 -153.570094 67.248906 -149.441188 C 67.248906 -145.316188 70.592656 -141.968531 74.721563 -141.968531 C 78.846563 -141.968531 82.194219 -145.316188 82.194219 -149.441188 Z M 82.194219 -149.441188 " transform="matrix(1,0,0,-1,-50.995,-65.699)"/>
<path style="fill-rule:nonzero;fill:rgb(100%,100%,100%);fill-opacity:1;stroke-width:1.49449;stroke-linecap:butt;stroke-linejoin:miter;stroke:rgb(0%,0%,0%);stroke-opacity:1;stroke-miterlimit:10;" d="M 134.498906 -179.327906 C 134.498906 -183.456813 131.15125 -186.800563 127.02625 -186.800563 C 122.897344 -186.800563 119.553594 -183.456813 119.553594 -179.327906 C 119.553594 -175.202906 122.897344 -171.859156 127.02625 -171.859156 C 131.15125 -171.859156 134.498906 -175.202906 134.498906 -179.327906 Z M 134.498906 -179.327906 " transform="matrix(1,0,0,-1,-50.995,-65.699)"/>
<path style="fill-rule:nonzero;fill:rgb(100%,100%,100%);fill-opacity:1;stroke-width:1.49449;stroke-linecap:butt;stroke-linejoin:miter;stroke:rgb(0%,0%,0%);stroke-opacity:1;stroke-miterlimit:10;" d="M 224.162969 -156.913844 C 224.162969 -161.038844 220.815313 -164.3865 216.690313 -164.3865 C 212.565313 -164.3865 209.217656 -161.038844 209.217656 -156.913844 C 209.217656 -152.784938 212.565313 -149.441188 216.690313 -149.441188 C 220.815313 -149.441188 224.162969 -152.784938 224.162969 -156.913844 Z M 224.162969 -156.913844 " transform="matrix(1,0,0,-1,-50.995,-65.699)"/>
<path style="fill-rule:nonzero;fill:rgb(100%,100%,100%);fill-opacity:1;stroke-width:1.49449;stroke-linecap:butt;stroke-linejoin:miter;stroke:rgb(0%,0%,0%);stroke-opacity:1;stroke-miterlimit:10;" d="M 246.577031 -89.663844 C 246.577031 -93.79275 243.233281 -97.1365 239.108281 -97.1365 C 234.979375 -97.1365 231.635625 -93.79275 231.635625 -89.663844 C 231.635625 -85.538844 234.979375 -82.191188 239.108281 -82.191188 C 243.233281 -82.191188 246.577031 -85.538844 246.577031 -89.663844 Z M 246.577031 -89.663844 " transform="matrix(1,0,0,-1,-50.995,-65.699)"/>
<path style="fill-rule:nonzero;fill:rgb(100%,100%,100%);fill-opacity:1;stroke-width:1.49449;stroke-linecap:butt;stroke-linejoin:miter;stroke:rgb(0%,0%,0%);stroke-opacity:1;stroke-miterlimit:10;" d="M 179.330938 -156.913844 C 179.330938 -161.038844 175.983281 -164.3865 171.858281 -164.3865 C 167.729375 -164.3865 164.385625 -161.038844 164.385625 -156.913844 C 164.385625 -152.784938 167.729375 -149.441188 171.858281 -149.441188 C 175.983281 -149.441188 179.330938 -152.784938 179.330938 -156.913844 Z M 179.330938 -156.913844 " transform="matrix(1,0,0,-1,-50.995,-65.699)"/>
<path style="fill-rule:nonzero;fill:rgb(100%,100%,100%);fill-opacity:1;stroke-width:1.49449;stroke-linecap:butt;stroke-linejoin:miter;stroke:rgb(0%,0%,0%);stroke-opacity:1;stroke-miterlimit:10;" d="M 127.02625 -112.081813 C 127.02625 -116.206813 123.678594 -119.554469 119.553594 -119.554469 C 115.424688 -119.554469 112.080938 -116.206813 112.080938 -112.081813 C 112.080938 -107.952906 115.424688 -104.609156 119.553594 -104.609156 C 123.678594 -104.609156 127.02625 -107.952906 127.02625 -112.081813 Z M 127.02625 -112.081813 " transform="matrix(1,0,0,-1,-50.995,-65.699)"/>
<path style="fill-rule:nonzero;fill:rgb(100%,100%,100%);fill-opacity:1;stroke-width:1.49449;stroke-linecap:butt;stroke-linejoin:miter;stroke:rgb(0%,0%,0%);stroke-opacity:1;stroke-miterlimit:10;" d="M 67.248906 -82.191188 C 67.248906 -86.320094 63.905156 -89.663844 59.77625 -89.663844 C 55.65125 -89.663844 52.303594 -86.320094 52.303594 -82.191188 C 52.303594 -78.066188 55.65125 -74.722438 59.77625 -74.722438 C 63.905156 -74.722438 67.248906 -78.066188 67.248906 -82.191188 Z M 67.248906 -82.191188 " transform="matrix(1,0,0,-1,-50.995,-65.699)"/>
<path style="fill-rule:nonzero;fill:rgb(100%,100%,100%);fill-opacity:1;stroke-width:1.49449;stroke-linecap:butt;stroke-linejoin:miter;stroke:rgb(0%,0%,0%);stroke-opacity:1;stroke-miterlimit:10;" d="M 201.745 -119.554469 C 201.745 -123.679469 198.40125 -127.027125 194.272344 -127.027125 C 190.147344 -127.027125 186.803594 -123.679469 186.803594 -119.554469 C 186.803594 -115.425563 190.147344 -112.081813 194.272344 -112.081813 C 198.40125 -112.081813 201.745 -115.425563 201.745 -119.554469 Z M 201.745 -119.554469 " transform="matrix(1,0,0,-1,-50.995,-65.699)"/>
<path style="fill:none;stroke-width:1.49449;stroke-linecap:butt;stroke-linejoin:miter;stroke:rgb(0%,0%,0%);stroke-opacity:1;stroke-miterlimit:10;" d="M 67.073125 -85.839625 L 112.256719 -108.433375 " transform="matrix(1,0,0,-1,-50.995,-65.699)"/>
<path style="fill:none;stroke-width:1.49449;stroke-linecap:butt;stroke-linejoin:miter;stroke:rgb(0%,0%,0%);stroke-opacity:1;stroke-miterlimit:10;" d="M 113.690313 -82.765406 L 117.944219 -104.034938 " transform="matrix(1,0,0,-1,-50.995,-65.699)"/>
<path style="fill:none;stroke-width:1.49449;stroke-linecap:butt;stroke-linejoin:miter;stroke:rgb(0%,0%,0%);stroke-opacity:1;stroke-miterlimit:10;" d="M 81.030156 -144.183375 L 113.245 -117.339625 " transform="matrix(1,0,0,-1,-50.995,-65.699)"/>
<path style="fill:none;stroke-width:1.49449;stroke-linecap:butt;stroke-linejoin:miter;stroke:rgb(0%,0%,0%);stroke-opacity:1;stroke-miterlimit:10;" d="M 126.12 -171.171656 L 120.459844 -120.241969 " transform="matrix(1,0,0,-1,-50.995,-65.699)"/>
<path style="fill:none;stroke-width:1.49449;stroke-linecap:butt;stroke-linejoin:miter;stroke:rgb(0%,0%,0%);stroke-opacity:1;stroke-miterlimit:10;" d="M 165.62 -151.566188 L 125.791875 -117.429469 " transform="matrix(1,0,0,-1,-50.995,-65.699)"/>
<path style="fill:none;stroke-width:1.49449;stroke-linecap:butt;stroke-linejoin:miter;stroke:rgb(0%,0%,0%);stroke-opacity:1;stroke-miterlimit:10;" d="M 127.733281 -112.898219 L 186.092656 -118.734156 " transform="matrix(1,0,0,-1,-50.995,-65.699)"/>
<path style="fill:none;stroke-width:1.49449;stroke-linecap:butt;stroke-linejoin:miter;stroke:rgb(0%,0%,0%);stroke-opacity:1;stroke-miterlimit:10;" d="M 191.221563 -111.91775 L 182.381719 -89.827906 " transform="matrix(1,0,0,-1,-50.995,-65.699)"/>
<path style="fill:none;stroke-width:1.49449;stroke-linecap:butt;stroke-linejoin:miter;stroke:rgb(0%,0%,0%);stroke-opacity:1;stroke-miterlimit:10;" d="M 201.108281 -114.995875 L 232.272344 -94.222438 " transform="matrix(1,0,0,-1,-50.995,-65.699)"/>
<path style="fill:none;stroke-width:1.49449;stroke-linecap:butt;stroke-linejoin:miter;stroke:rgb(0%,0%,0%);stroke-opacity:1;stroke-miterlimit:10;" d="M 198.502813 -126.60525 L 212.459844 -149.863063 " transform="matrix(1,0,0,-1,-50.995,-65.699)"/>
</g>
</svg>
