<?xml version="1.0" encoding="UTF-8" standalone="no"?>
<!DOCTYPE svg PUBLIC "-//W3C//DTD SVG 1.1//EN"
 "http://www.w3.org/Graphics/SVG/1.1/DTD/svg11.dtd">
<!-- Generated by graphviz version 2.38.0 (20140413.2041)
 -->
<!-- Title: %3 Pages: 1 -->
<svg width="251pt" height="148pt"
 viewBox="0.00 0.00 251.24 148.20" xmlns="http://www.w3.org/2000/svg" xmlns:xlink="http://www.w3.org/1999/xlink">
<g id="graph0" class="graph" transform="scale(1 1) rotate(0) translate(4 144.201)">
<title>%3</title>
<polygon fill="white" stroke="none" points="-4,4 -4,-144.201 247.241,-144.201 247.241,4 -4,4"/>
<!-- A -->
<g id="node1" class="node"><title>A</title>
<ellipse fill="none" stroke="black" cx="27" cy="-18" rx="27" ry="18"/>
<text text-anchor="middle" x="27" y="-13.8" font-family="Times,serif" font-size="14.00">A</text>
</g>
<!-- B -->
<g id="node2" class="node"><title>B</title>
<ellipse fill="none" stroke="black" cx="27" cy="-122.201" rx="27" ry="18"/>
<text text-anchor="middle" x="27" y="-118.001" font-family="Times,serif" font-size="14.00">B</text>
</g>
<!-- A&#45;&gt;B -->
<g id="edge1" class="edge"><title>A&#45;&gt;B</title>
<path fill="none" stroke="black" d="M27,-36.1505C27,-52.0406 27,-75.3934 27,-93.7632"/>
<polygon fill="black" stroke="black" points="23.4999,-93.9091 27,-103.909 30.4999,-93.909 23.4999,-93.9091"/>
</g>
<!-- C -->
<g id="node3" class="node"><title>C</title>
<ellipse fill="none" stroke="black" cx="117.241" cy="-70.1006" rx="27" ry="18"/>
<text text-anchor="middle" x="117.241" y="-65.9006" font-family="Times,serif" font-size="14.00">C</text>
</g>
<!-- B&#45;&gt;C -->
<g id="edge2" class="edge"><title>B&#45;&gt;C</title>
<path fill="none" stroke="black" d="M47.477,-110.379C59.3919,-103.5 74.614,-94.7112 87.7971,-87.0999"/>
<polygon fill="black" stroke="black" points="89.6222,-90.0877 96.5325,-82.0566 86.1222,-84.0255 89.6222,-90.0877"/>
</g>
<!-- C&#45;&gt;A -->
<g id="edge3" class="edge"><title>C&#45;&gt;A</title>
<path fill="none" stroke="black" d="M96.7638,-58.2782C84.8489,-51.3991 69.6269,-42.6106 56.4437,-34.9993"/>
<polygon fill="black" stroke="black" points="58.1187,-31.9249 47.7084,-29.956 54.6186,-37.9871 58.1187,-31.9249"/>
</g>
<!-- D -->
<g id="node4" class="node"><title>D</title>
<ellipse fill="none" stroke="black" cx="216.241" cy="-70.1006" rx="27" ry="18"/>
<text text-anchor="middle" x="216.241" y="-65.9006" font-family="Times,serif" font-size="14.00">D</text>
</g>
<!-- C&#45;&gt;D -->
<g id="edge4" class="edge"><title>C&#45;&gt;D</title>
<path fill="none" stroke="black" d="M144.293,-70.1006C154.988,-70.1006 167.457,-70.1006 178.981,-70.1006"/>
<polygon fill="black" stroke="black" points="179.221,-73.6007 189.221,-70.1006 179.221,-66.6007 179.221,-73.6007"/>
</g>
</g>
</svg>
