<?xml version="1.0" encoding="UTF-8"?>
<svg xmlns="http://www.w3.org/2000/svg" xmlns:xlink="http://www.w3.org/1999/xlink" width="167pt" height="124pt" viewBox="0 0 167 124" version="1.1">
<g id="surface1">
<path style="fill-rule:nonzero;fill:rgb(0%,0%,100%);fill-opacity:1;stroke-width:2.98878;stroke-linecap:butt;stroke-linejoin:miter;stroke:rgb(0%,0%,0%);stroke-opacity:1;stroke-miterlimit:10;" d="M 171.857563 -89.665531 C 171.857563 -93.790531 168.513813 -97.138188 164.384906 -97.138188 C 160.259906 -97.138188 156.91225 -93.790531 156.91225 -89.665531 C 156.91225 -85.536625 160.259906 -82.192875 164.384906 -82.192875 C 168.513813 -82.192875 171.857563 -85.536625 171.857563 -89.665531 Z M 171.857563 -89.665531 " transform="matrix(1,0,0,-1,-148.131,-79.896)"/>
<path style="fill-rule:nonzero;fill:rgb(100%,100%,100%);fill-opacity:1;stroke-width:1.49449;stroke-linecap:butt;stroke-linejoin:miter;stroke:rgb(0%,0%,0%);stroke-opacity:1;stroke-miterlimit:10;" d="M 209.216938 -97.138188 C 209.216938 -101.263188 205.873188 -104.610844 201.744281 -104.610844 C 197.619281 -104.610844 194.275531 -101.263188 194.275531 -97.138188 C 194.275531 -93.009281 197.619281 -89.665531 201.744281 -89.665531 C 205.873188 -89.665531 209.216938 -93.009281 209.216938 -97.138188 Z M 209.216938 -97.138188 " transform="matrix(1,0,0,-1,-148.131,-79.896)"/>
<path style="fill-rule:nonzero;fill:rgb(100%,100%,100%);fill-opacity:1;stroke-width:1.49449;stroke-linecap:butt;stroke-linejoin:miter;stroke:rgb(0%,0%,0%);stroke-opacity:1;stroke-miterlimit:10;" d="M 164.384906 -127.024906 C 164.384906 -131.153813 161.041156 -134.497563 156.91225 -134.497563 C 152.78725 -134.497563 149.439594 -131.153813 149.439594 -127.024906 C 149.439594 -122.899906 152.78725 -119.55225 156.91225 -119.55225 C 161.041156 -119.55225 164.384906 -122.899906 164.384906 -127.024906 Z M 164.384906 -127.024906 " transform="matrix(1,0,0,-1,-148.131,-79.896)"/>
<path style="fill-rule:nonzero;fill:rgb(100%,100%,100%);fill-opacity:1;stroke-width:2.98878;stroke-linecap:butt;stroke-linejoin:miter;stroke:rgb(0%,0%,0%);stroke-opacity:1;stroke-miterlimit:10;" d="M 239.107563 -134.497563 C 239.107563 -138.622563 235.759906 -141.970219 231.634906 -141.970219 C 227.506 -141.970219 224.16225 -138.622563 224.16225 -134.497563 C 224.16225 -130.368656 227.506 -127.024906 231.634906 -127.024906 C 235.759906 -127.024906 239.107563 -130.368656 239.107563 -134.497563 Z M 239.107563 -134.497563 " transform="matrix(1,0,0,-1,-148.131,-79.896)"/>
<path style="fill-rule:nonzero;fill:rgb(100%,100%,100%);fill-opacity:1;stroke-width:2.98878;stroke-linecap:butt;stroke-linejoin:miter;stroke:rgb(0%,0%,0%);stroke-opacity:1;stroke-miterlimit:10;" d="M 201.744281 -134.497563 C 201.744281 -138.622563 198.400531 -141.970219 194.275531 -141.970219 C 190.146625 -141.970219 186.802875 -138.622563 186.802875 -134.497563 C 186.802875 -130.368656 190.146625 -127.024906 194.275531 -127.024906 C 198.400531 -127.024906 201.744281 -130.368656 201.744281 -134.497563 Z M 201.744281 -134.497563 " transform="matrix(1,0,0,-1,-148.131,-79.896)"/>
<path style="fill-rule:nonzero;fill:rgb(100%,100%,100%);fill-opacity:1;stroke-width:1.49449;stroke-linecap:butt;stroke-linejoin:miter;stroke:rgb(0%,0%,0%);stroke-opacity:1;stroke-miterlimit:10;" d="M 261.521625 -97.138188 C 261.521625 -101.263188 258.177875 -104.610844 254.048969 -104.610844 C 249.923969 -104.610844 246.580219 -101.263188 246.580219 -97.138188 C 246.580219 -93.009281 249.923969 -89.665531 254.048969 -89.665531 C 258.177875 -89.665531 261.521625 -93.009281 261.521625 -97.138188 Z M 261.521625 -97.138188 " transform="matrix(1,0,0,-1,-148.131,-79.896)"/>
<path style="fill-rule:nonzero;fill:rgb(100%,100%,100%);fill-opacity:1;stroke-width:1.49449;stroke-linecap:butt;stroke-linejoin:miter;stroke:rgb(0%,0%,0%);stroke-opacity:1;stroke-miterlimit:10;" d="M 186.802875 -171.856938 C 186.802875 -175.985844 183.455219 -179.329594 179.330219 -179.329594 C 175.201313 -179.329594 171.857563 -175.985844 171.857563 -171.856938 C 171.857563 -167.731938 175.201313 -164.384281 179.330219 -164.384281 C 183.455219 -164.384281 186.802875 -167.731938 186.802875 -171.856938 Z M 186.802875 -171.856938 " transform="matrix(1,0,0,-1,-148.131,-79.896)"/>
<path style="fill-rule:nonzero;fill:rgb(100%,100%,100%);fill-opacity:1;stroke-width:1.49449;stroke-linecap:butt;stroke-linejoin:miter;stroke:rgb(0%,0%,0%);stroke-opacity:1;stroke-miterlimit:10;" d="M 224.16225 -164.384281 C 224.16225 -168.513188 220.8185 -171.856938 216.689594 -171.856938 C 212.564594 -171.856938 209.216938 -168.513188 209.216938 -164.384281 C 209.216938 -160.259281 212.564594 -156.915531 216.689594 -156.915531 C 220.8185 -156.915531 224.16225 -160.259281 224.16225 -164.384281 Z M 224.16225 -164.384281 " transform="matrix(1,0,0,-1,-148.131,-79.896)"/>
<path style="fill-rule:nonzero;fill:rgb(100%,100%,100%);fill-opacity:1;stroke-width:1.49449;stroke-linecap:butt;stroke-linejoin:miter;stroke:rgb(0%,0%,0%);stroke-opacity:1;stroke-miterlimit:10;" d="M 291.41225 -119.55225 C 291.41225 -123.681156 288.064594 -127.024906 283.939594 -127.024906 C 279.810687 -127.024906 276.466937 -123.681156 276.466937 -119.55225 C 276.466937 -115.42725 279.810687 -112.079594 283.939594 -112.079594 C 288.064594 -112.079594 291.41225 -115.42725 291.41225 -119.55225 Z M 291.41225 -119.55225 " transform="matrix(1,0,0,-1,-148.131,-79.896)"/>
<path style="fill-rule:nonzero;fill:rgb(100%,100%,100%);fill-opacity:1;stroke-width:1.49449;stroke-linecap:butt;stroke-linejoin:miter;stroke:rgb(0%,0%,0%);stroke-opacity:1;stroke-miterlimit:10;" d="M 261.521625 -171.856938 C 261.521625 -175.985844 258.177875 -179.329594 254.048969 -179.329594 C 249.923969 -179.329594 246.580219 -175.985844 246.580219 -171.856938 C 246.580219 -167.731938 249.923969 -164.384281 254.048969 -164.384281 C 258.177875 -164.384281 261.521625 -167.731938 261.521625 -171.856938 Z M 261.521625 -171.856938 " transform="matrix(1,0,0,-1,-148.131,-79.896)"/>
<path style="fill-rule:nonzero;fill:rgb(100%,100%,100%);fill-opacity:1;stroke-width:2.98878;stroke-linecap:butt;stroke-linejoin:miter;stroke:rgb(0%,0%,0%);stroke-opacity:1;stroke-miterlimit:10;" d="M 276.466937 -149.442875 C 276.466937 -153.567875 273.123187 -156.915531 268.994281 -156.915531 C 264.869281 -156.915531 261.521625 -153.567875 261.521625 -149.442875 C 261.521625 -145.313969 264.869281 -141.970219 268.994281 -141.970219 C 273.123187 -141.970219 276.466937 -145.313969 276.466937 -149.442875 Z M 276.466937 -149.442875 " transform="matrix(1,0,0,-1,-148.131,-79.896)"/>
<path style="fill-rule:nonzero;fill:rgb(100%,100%,100%);fill-opacity:1;stroke-width:1.49449;stroke-linecap:butt;stroke-linejoin:miter;stroke:rgb(0%,0%,0%);stroke-opacity:1;stroke-miterlimit:10;" d="M 313.826312 -97.138188 C 313.826312 -101.263188 310.482562 -104.610844 306.353656 -104.610844 C 302.228656 -104.610844 298.884906 -101.263188 298.884906 -97.138188 C 298.884906 -93.009281 302.228656 -89.665531 306.353656 -89.665531 C 310.482562 -89.665531 313.826312 -93.009281 313.826312 -97.138188 Z M 313.826312 -97.138188 " transform="matrix(1,0,0,-1,-148.131,-79.896)"/>
<path style="fill-rule:nonzero;fill:rgb(100%,100%,100%);fill-opacity:1;stroke-width:1.49449;stroke-linecap:butt;stroke-linejoin:miter;stroke:rgb(0%,0%,0%);stroke-opacity:1;stroke-miterlimit:10;" d="M 306.353656 -156.915531 C 306.353656 -161.040531 303.009906 -164.384281 298.884906 -164.384281 C 294.756 -164.384281 291.41225 -161.040531 291.41225 -156.915531 C 291.41225 -152.786625 294.756 -149.442875 298.884906 -149.442875 C 303.009906 -149.442875 306.353656 -152.786625 306.353656 -156.915531 Z M 306.353656 -156.915531 " transform="matrix(1,0,0,-1,-148.131,-79.896)"/>
<path style="fill-rule:nonzero;fill:rgb(0%,0%,100%);fill-opacity:1;stroke-width:2.98878;stroke-linecap:butt;stroke-linejoin:miter;stroke:rgb(0%,0%,0%);stroke-opacity:1;stroke-miterlimit:10;" d="M 306.353656 -194.274906 C 306.353656 -198.399906 303.009906 -201.747563 298.884906 -201.747563 C 294.756 -201.747563 291.41225 -198.399906 291.41225 -194.274906 C 291.41225 -190.146 294.756 -186.80225 298.884906 -186.80225 C 303.009906 -186.80225 306.353656 -190.146 306.353656 -194.274906 Z M 306.353656 -194.274906 " transform="matrix(1,0,0,-1,-148.131,-79.896)"/>
<path style="fill:none;stroke-width:1.49449;stroke-linecap:butt;stroke-linejoin:miter;stroke:rgb(0%,0%,0%);stroke-opacity:1;stroke-miterlimit:10;" d="M 162.631 -98.438969 L 158.521625 -118.981938 " transform="matrix(1,0,0,-1,-148.131,-79.896)"/>
<path style="fill:none;stroke-width:1.49449;stroke-linecap:butt;stroke-linejoin:miter;stroke:rgb(0%,0%,0%);stroke-opacity:1;stroke-miterlimit:10;" d="M 173.158344 -91.419438 L 193.701313 -95.528813 " transform="matrix(1,0,0,-1,-148.131,-79.896)"/>
<path style="fill:none;stroke-width:1.49449;stroke-linecap:butt;stroke-linejoin:miter;stroke:rgb(0%,0%,0%);stroke-opacity:1;stroke-miterlimit:10;" d="M 200.138813 -105.181156 L 196.029438 -125.724125 " transform="matrix(1,0,0,-1,-148.131,-79.896)"/>
<path style="fill:none;stroke-width:1.49449;stroke-linecap:butt;stroke-linejoin:miter;stroke:rgb(0%,0%,0%);stroke-opacity:1;stroke-miterlimit:10;" d="M 164.959125 -128.634281 L 185.498188 -132.743656 " transform="matrix(1,0,0,-1,-148.131,-79.896)"/>
<path style="fill:none;stroke-width:2.98878;stroke-linecap:butt;stroke-linejoin:miter;stroke:rgb(0%,0%,0%);stroke-opacity:1;stroke-miterlimit:10;" d="M 169.353656 -97.118656 L 189.302875 -127.044438 " transform="matrix(1,0,0,-1,-148.131,-79.896)"/>
<path style="fill:none;stroke-width:1.49449;stroke-linecap:butt;stroke-linejoin:miter;stroke:rgb(0%,0%,0%);stroke-opacity:1;stroke-miterlimit:10;" d="M 182.384906 -164.224125 L 190.9435 -142.825688 " transform="matrix(1,0,0,-1,-148.131,-79.896)"/>
<path style="fill:none;stroke-width:1.49449;stroke-linecap:butt;stroke-linejoin:miter;stroke:rgb(0%,0%,0%);stroke-opacity:1;stroke-miterlimit:10;" d="M 187.373188 -170.247563 L 208.646625 -165.993656 " transform="matrix(1,0,0,-1,-148.131,-79.896)"/>
<path style="fill:none;stroke-width:1.49449;stroke-linecap:butt;stroke-linejoin:miter;stroke:rgb(0%,0%,0%);stroke-opacity:1;stroke-miterlimit:10;" d="M 175.740375 -164.67725 L 160.502094 -134.204594 " transform="matrix(1,0,0,-1,-148.131,-79.896)"/>
<path style="fill:none;stroke-width:1.49449;stroke-linecap:butt;stroke-linejoin:miter;stroke:rgb(0%,0%,0%);stroke-opacity:1;stroke-miterlimit:10;" d="M 209.9435 -97.138188 L 245.853656 -97.138188 " transform="matrix(1,0,0,-1,-148.131,-79.896)"/>
<path style="fill:none;stroke-width:1.49449;stroke-linecap:butt;stroke-linejoin:miter;stroke:rgb(0%,0%,0%);stroke-opacity:1;stroke-miterlimit:10;" d="M 262.248187 -97.138188 L 298.158344 -97.138188 " transform="matrix(1,0,0,-1,-148.131,-79.896)"/>
<path style="fill:none;stroke-width:1.49449;stroke-linecap:butt;stroke-linejoin:miter;stroke:rgb(0%,0%,0%);stroke-opacity:1;stroke-miterlimit:10;" d="M 305.338031 -105.286625 L 299.900531 -148.763188 " transform="matrix(1,0,0,-1,-148.131,-79.896)"/>
<path style="fill:none;stroke-width:1.49449;stroke-linecap:butt;stroke-linejoin:miter;stroke:rgb(0%,0%,0%);stroke-opacity:1;stroke-miterlimit:10;" d="M 298.884906 -165.130375 L 298.884906 -185.3335 " transform="matrix(1,0,0,-1,-148.131,-79.896)"/>
<path style="fill:none;stroke-width:1.49449;stroke-linecap:butt;stroke-linejoin:miter;stroke:rgb(0%,0%,0%);stroke-opacity:1;stroke-miterlimit:10;" d="M 295.830219 -149.278813 L 286.994281 -127.188969 " transform="matrix(1,0,0,-1,-148.131,-79.896)"/>
<path style="fill:none;stroke-width:1.49449;stroke-linecap:butt;stroke-linejoin:miter;stroke:rgb(0%,0%,0%);stroke-opacity:1;stroke-miterlimit:10;" d="M 277.365375 -114.622563 L 260.623187 -102.067875 " transform="matrix(1,0,0,-1,-148.131,-79.896)"/>
<path style="fill:none;stroke-width:1.49449;stroke-linecap:butt;stroke-linejoin:miter;stroke:rgb(0%,0%,0%);stroke-opacity:1;stroke-miterlimit:10;" d="M 264.025531 -156.896 L 258.607562 -165.021 " transform="matrix(1,0,0,-1,-148.131,-79.896)"/>
<path style="fill:none;stroke-width:1.49449;stroke-linecap:butt;stroke-linejoin:miter;stroke:rgb(0%,0%,0%);stroke-opacity:1;stroke-miterlimit:10;" d="M 277.701312 -151.618656 L 290.908344 -154.919438 " transform="matrix(1,0,0,-1,-148.131,-79.896)"/>
<path style="fill:none;stroke-width:1.49449;stroke-linecap:butt;stroke-linejoin:miter;stroke:rgb(0%,0%,0%);stroke-opacity:1;stroke-miterlimit:10;" d="M 290.865375 -190.267094 L 261.232562 -175.446781 " transform="matrix(1,0,0,-1,-148.131,-79.896)"/>
<path style="fill:none;stroke-width:1.49449;stroke-linecap:butt;stroke-linejoin:miter;stroke:rgb(0%,0%,0%);stroke-opacity:1;stroke-miterlimit:10;" d="M 224.736469 -165.993656 L 246.006 -170.247563 " transform="matrix(1,0,0,-1,-148.131,-79.896)"/>
<path style="fill:none;stroke-width:2.98878;stroke-linecap:butt;stroke-linejoin:miter;stroke:rgb(0%,0%,0%);stroke-opacity:1;stroke-miterlimit:10;" d="M 260.666156 -146.110844 L 239.963031 -137.829594 " transform="matrix(1,0,0,-1,-148.131,-79.896)"/>
<path style="fill:none;stroke-width:1.49449;stroke-linecap:butt;stroke-linejoin:miter;stroke:rgb(0%,0%,0%);stroke-opacity:1;stroke-miterlimit:10;" d="M 226.963031 -128.661625 L 206.650531 -103.267094 " transform="matrix(1,0,0,-1,-148.131,-79.896)"/>
<path style="fill:none;stroke-width:2.98878;stroke-linecap:butt;stroke-linejoin:miter;stroke:rgb(0%,0%,0%);stroke-opacity:1;stroke-miterlimit:10;" d="M 222.697406 -134.497563 L 203.213031 -134.497563 " transform="matrix(1,0,0,-1,-148.131,-79.896)"/>
<path style="fill:none;stroke-width:1.49449;stroke-linecap:butt;stroke-linejoin:miter;stroke:rgb(0%,0%,0%);stroke-opacity:1;stroke-miterlimit:10;" d="M 227.627094 -142.509281 L 220.338031 -157.087406 " transform="matrix(1,0,0,-1,-148.131,-79.896)"/>
<path style="fill:none;stroke-width:1.49449;stroke-linecap:butt;stroke-linejoin:miter;stroke:rgb(0%,0%,0%);stroke-opacity:1;stroke-miterlimit:10;" d="M 236.244281 -126.817875 L 249.8185 -104.188969 " transform="matrix(1,0,0,-1,-148.131,-79.896)"/>
<path style="fill:none;stroke-width:1.49449;stroke-linecap:butt;stroke-linejoin:miter;stroke:rgb(0%,0%,0%);stroke-opacity:1;stroke-miterlimit:10;" d="M 273.002094 -141.431156 L 280.291156 -126.849125 " transform="matrix(1,0,0,-1,-148.131,-79.896)"/>
<path style="fill:none;stroke-width:2.98878;stroke-linecap:butt;stroke-linejoin:miter;stroke:rgb(0%,0%,0%);stroke-opacity:1;stroke-miterlimit:10;" d="M 273.963031 -156.896 L 293.91225 -186.821781 " transform="matrix(1,0,0,-1,-148.131,-79.896)"/>
<path style="fill:none;stroke-width:1.49449;stroke-linecap:butt;stroke-linejoin:miter;stroke:rgb(0%,0%,0%);stroke-opacity:1;stroke-miterlimit:10;" d="M 256.306781 -105.028813 L 266.53725 -140.8335 " transform="matrix(1,0,0,-1,-148.131,-79.896)"/>
</g>
</svg>
